
<svg xmlns="http://www.w3.org/2000/svg" xmlns:xlink="http://www.w3.org/1999/xlink" viewBox="0 0 593.23 638"><defs><style>.a{fill:#b595af;}.b{fill:#493545;}.c{fill:#99598d;}.d{fill:#c638ac;}.e{fill:#cadbf7;}.aj,.ak,.f,.g,.l,.r,.v,.w{opacity:0.5;}.aj,.ak,.al,.am,.an,.ao,.ap,.aq,.ar,.f,.g,.j,.k,.o,.q,.r,.t,.v,.w{isolation:isolate;}.f{fill:url(#a);}.g{fill:url(#b);}.h{fill:#2767d5;}.i{fill:url(#c);}.al,.am,.an,.ao,.j,.k,.t{opacity:0.25;}.j{fill:url(#d);}.k{fill:url(#e);}.m,.r{fill:#4eedf9;}.n{fill:#ecf3fc;}.o{fill:#9fb4d3;opacity:0.2;}.p{fill:url(#f);}.q{opacity:0.35;fill:url(#g);}.s{fill:url(#h);}.t{fill:url(#i);}.u{fill:#2bcaeb;}.v{fill:url(#j);}.w{fill:url(#k);}.x{fill:#a7f3f9;}.y{fill:#92f2fe;}.z{fill:#ddeafe;}.aa,.ap{fill:#3de6fd;}.ab{fill:#2f85e6;}.ac{fill:url(#l);}.ad{fill:#7db5d1;}.ae{fill:url(#m);}.af{fill:url(#n);}.ag,.ah{fill:none;stroke:#7ddbf9;stroke-linecap:round;stroke-linejoin:round;stroke-width:0.67px;}.ah{stroke-dasharray:5.32 5.32;}.ai{fill:#fff;}.aj{fill:url(#o);}.ak{fill:url(#p);}.al{fill:url(#q);}.am{fill:url(#r);}.an{fill:url(#s);}.ao{fill:url(#t);}.ap,.aq,.ar{opacity:0.3;}.aq{fill:url(#u);}.ar{fill:#45bdfb;}.as{fill:url(#v);}.at{fill:url(#w);}.au{fill:#359aea;}.av{fill:url(#x);}.aw{fill:#ffbec7;}.ax{fill:url(#y);}.ay{fill:url(#z);}.az{fill:url(#aa);}.ba{fill:url(#ab);}.bb{fill:url(#ac);}.bc{fill:url(#ad);}.bd{fill:url(#ae);}</style><linearGradient id="a" x1="296.63" y1="274.68" x2="296.63" y2="143.21" gradientTransform="matrix(1, 0, 0, -1, 0, 638.06)" gradientUnits="userSpaceOnUse"><stop offset="0" stop-color="#1b4bbb"/><stop offset="0.13" stop-color="#1b4dbf" stop-opacity="0.91"/><stop offset="0.38" stop-color="#1a51cb" stop-opacity="0.68"/><stop offset="0.73" stop-color="#1859de" stop-opacity="0.3"/><stop offset="1" stop-color="#175fed" stop-opacity="0"/></linearGradient><linearGradient id="b" x1="296.63" y1="360.7" x2="296.63" y2="41.54" xlink:href="#a"/><linearGradient id="c" x1="606.15" y1="597.65" x2="161.75" y2="142.05" gradientTransform="matrix(1, 0, 0, -1, 0, 638.06)" gradientUnits="userSpaceOnUse"><stop offset="0" stop-color="#fff"/><stop offset="0.63" stop-color="#dbe6fa"/><stop offset="1" stop-color="#cadbf7"/></linearGradient><linearGradient id="d" x1="475.32" y1="512.4" x2="406.63" y2="384.4" gradientTransform="matrix(1, 0, 0, -1, 0, 638.06)" gradientUnits="userSpaceOnUse"><stop offset="0" stop-color="#92f2fe"/><stop offset="0.96" stop-color="#fff" stop-opacity="0"/></linearGradient><linearGradient id="e" x1="290.32" y1="614.25" x2="290.32" y2="470.15" xlink:href="#d"/><linearGradient id="f" x1="297.5" y1="526.28" x2="297.5" y2="68.43" gradientTransform="matrix(1, 0, 0, -1, 0, 638.06)" gradientUnits="userSpaceOnUse"><stop offset="0" stop-color="#fff" stop-opacity="0"/><stop offset="1" stop-color="#3de6fd" stop-opacity="0.4"/></linearGradient><linearGradient id="g" x1="286.23" y1="398.36" x2="249.1" y2="234.98" gradientTransform="matrix(1, 0, 0, -1, 0, 638.06)" gradientUnits="userSpaceOnUse"><stop offset="0.45" stop-color="#359aea" stop-opacity="0.6"/><stop offset="0.53" stop-color="#56abed" stop-opacity="0.5"/><stop offset="0.85" stop-color="#cfe7fa" stop-opacity="0.14"/><stop offset="1" stop-color="#fff" stop-opacity="0"/></linearGradient><linearGradient id="h" x1="347.75" y1="497.11" x2="327.82" y2="401.72" gradientTransform="matrix(1, 0, 0, -1, 0, 638.06)" gradientUnits="userSpaceOnUse"><stop offset="0.04" stop-color="#92f2fe"/><stop offset="0.14" stop-color="#8beafc"/><stop offset="0.28" stop-color="#78d6f8"/><stop offset="0.46" stop-color="#5ab4f0"/><stop offset="0.66" stop-color="#2f85e6"/></linearGradient><linearGradient id="i" x1="215.22" y1="566.71" x2="215.22" y2="472.3" gradientTransform="matrix(1, 0, 0, -1, 0, 638.06)" gradientUnits="userSpaceOnUse"><stop offset="0" stop-color="#92f2fe"/><stop offset="0.12" stop-color="#9df3fe" stop-opacity="0.9"/><stop offset="0.39" stop-color="#baf7fe" stop-opacity="0.63"/><stop offset="0.77" stop-color="#e8fcff" stop-opacity="0.21"/><stop offset="0.96" stop-color="#fff" stop-opacity="0"/></linearGradient><linearGradient id="j" x1="436.98" y1="472.14" x2="401.53" y2="406.09" xlink:href="#d"/><linearGradient id="k" x1="482.84" y1="437.38" x2="447.39" y2="371.33" xlink:href="#d"/><linearGradient id="l" x1="502.72" y1="272.09" x2="115.04" y2="458.63" gradientTransform="matrix(1, 0, 0, -1, 0, 638.06)" gradientUnits="userSpaceOnUse"><stop offset="0" stop-color="#dcf0fb"/><stop offset="0.3" stop-color="#d8effb"/><stop offset="0.57" stop-color="#cdedfb"/><stop offset="0.83" stop-color="#bbe9fc"/><stop offset="1" stop-color="#aae6fc"/></linearGradient><linearGradient id="m" x1="306.51" y1="444.14" x2="192.81" y2="403.13" gradientTransform="matrix(1, 0, 0, -1, 0, 638.06)" gradientUnits="userSpaceOnUse"><stop offset="0" stop-color="#a9c4ed"/><stop offset="0.58" stop-color="#9ae1f8"/><stop offset="1" stop-color="#92f2fe"/></linearGradient><linearGradient id="n" x1="406.78" y1="479.75" x2="58.74" y2="354.23" xlink:href="#m"/><linearGradient id="o" x1="415.1" y1="509.07" x2="379.65" y2="443.01" xlink:href="#d"/><linearGradient id="p" x1="464.32" y1="500.41" x2="428.87" y2="434.36" xlink:href="#d"/><linearGradient id="q" x1="240.99" y1="782.15" x2="240.99" y2="726.53" gradientTransform="matrix(1.03, 0.16, 0, -1, 30.84, 811.93)" xlink:href="#d"/><linearGradient id="r" x1="263.08" y1="741.94" x2="263.08" y2="686.32" gradientTransform="matrix(1.03, 0.16, 0, -1, 30.84, 811.93)" xlink:href="#d"/><linearGradient id="s" x1="189.79" y1="734.64" x2="189.79" y2="679.03" gradientTransform="matrix(1.03, 0.16, 0, -1, 30.84, 811.93)" xlink:href="#d"/><linearGradient id="t" x1="164.68" y1="700.77" x2="164.68" y2="645.15" gradientTransform="matrix(1.03, 0.16, 0, -1, 30.84, 811.93)" xlink:href="#d"/><linearGradient id="u" x1="113.6" y1="295.67" x2="383.75" y2="295.67" gradientTransform="matrix(1, 0, 0, -1, 0, 638.06)" gradientUnits="userSpaceOnUse"><stop offset="0" stop-color="#2b87f3"/><stop offset="1" stop-color="#46c1fc"/></linearGradient><linearGradient id="v" x1="355.08" y1="383.95" x2="461.25" y2="383.95" gradientTransform="matrix(1, 0, 0, -1, 0, 638.06)" gradientUnits="userSpaceOnUse"><stop offset="0" stop-color="#a9c4ed" stop-opacity="0.8"/><stop offset="0.22" stop-color="#b5cdf1" stop-opacity="0.85"/><stop offset="1" stop-color="#ddeafe"/></linearGradient><linearGradient id="w" x1="355.08" y1="366.76" x2="461.26" y2="366.76" xlink:href="#v"/><linearGradient id="x" x1="405.19" y1="240.15" x2="351.9" y2="338.79" gradientTransform="matrix(1, 0, 0, -1, 0, 638.06)" gradientUnits="userSpaceOnUse"><stop offset="0.04" stop-color="#2bcaeb"/><stop offset="0.17" stop-color="#33cdec"/><stop offset="0.35" stop-color="#47d5f0"/><stop offset="0.57" stop-color="#69e2f6"/><stop offset="0.8" stop-color="#92f2fe"/></linearGradient><linearGradient id="y" x1="245.68" y1="337.59" x2="258.99" y2="337.59" gradientTransform="matrix(1, 0, 0, -1, 0, 638.06)" gradientUnits="userSpaceOnUse"><stop offset="0" stop-color="#359aea"/><stop offset="0.08" stop-color="#3fa4ec"/><stop offset="0.5" stop-color="#6ccef6"/><stop offset="0.81" stop-color="#88e8fc"/><stop offset="1" stop-color="#92f2fe"/></linearGradient><linearGradient id="z" x1="1141.65" y1="311.36" x2="1138.5" y2="239.33" gradientTransform="translate(1422.7 638.06) rotate(180)" gradientUnits="userSpaceOnUse"><stop offset="0" stop-color="#92f2fe"/><stop offset="0.19" stop-color="#88e8fc"/><stop offset="0.5" stop-color="#6ccef6"/><stop offset="0.92" stop-color="#3fa4ec"/><stop offset="1" stop-color="#359aea"/></linearGradient><linearGradient id="aa" x1="1155.49" y1="301.34" x2="1156.6" y2="249.4" xlink:href="#z"/><linearGradient id="ab" x1="1149.09" y1="363.14" x2="1149.86" y2="280.46" xlink:href="#z"/><linearGradient id="ac" x1="817.16" y1="317.07" x2="815.81" y2="310.6" gradientTransform="translate(1068.06 638.08) rotate(180)" xlink:href="#h"/><linearGradient id="ad" x1="252.56" y1="297.46" x2="252.56" y2="322.07" xlink:href="#y"/><linearGradient id="ae" x1="1042.49" y1="384.03" x2="1083.62" y2="384.03" gradientTransform="translate(1413.86 436.57) rotate(166.66)" xlink:href="#z"/></defs><title>Asset 1</title><polygon class="a" points="402.22 117.33 402.22 117.59 401.98 117.46 402.22 117.33"/><polygon class="b" points="402.22 39.11 402.22 39.38 401.98 39.25 402.22 39.11"/><polygon class="c" points="238.08 117.33 238.32 117.46 238.08 117.59 238.08 117.33"/><polygon class="d" points="238.32 39.25 238.08 39.38 238.08 39.11 238.32 39.25"/><path class="e" d="M482.68,402.57v8.72h0a7,7,0,0,1-3.48,6.19L326.63,506.6a24.88,24.88,0,0,1-25.1,0L48.66,358.87a7,7,0,0,1-3.49-6.11V346l6.07,4.47,150-93a24.93,24.93,0,0,1,25.1,0L476.81,409.23Z"/><polygon class="f" points="516.27 375.55 516.27 563.87 76.99 563.87 76.99 376.95 516.27 375.55"/><polygon class="g" points="593.23 371.92 593.23 638 0.03 638 0.03 373.9 593.23 371.92"/><path class="h" d="M593.23,364.93v19a15,15,0,0,1-7.54,12.87L325.49,544.62a41.44,41.44,0,0,1-41.73.17L7.65,385.7A15.09,15.09,0,0,1,0,372.7V351.5L9,358.57,270,213a41.57,41.57,0,0,1,41.32,0L585.31,370.21Z"/><path class="i" d="M311.38,192.7,585.57,350.09a15.26,15.26,0,0,1,.12,26.4L325.49,524.35a41.52,41.52,0,0,1-41.72.15L7.66,365.4a15.26,15.26,0,0,1,0-26.46L270,192.69A41.51,41.51,0,0,1,311.38,192.7Z"/><polygon class="j" points="367.37 109.42 367.37 281.48 473.06 347.26 473.06 183.28 367.37 109.42"/><polygon class="k" points="260.57 28.24 260.57 174.59 320.08 174.59 320.08 30.88 260.57 28.24"/><g class="l"><ellipse class="m" cx="218.25" cy="66.61" rx="23.83" ry="29.15" transform="translate(10.18 160.29) rotate(-41.21)"/><path class="m" d="M224.27,68.46s3.54.18,3.54-4.69a6.29,6.29,0,0,0-3.61-5.44,9.48,9.48,0,0,0-2-.87V53.53l-3.92-.79v3.87L215,56V52l-3.92-.79v3.88l-3.58-.68V77.85l3.52.72v3.61l3.92.79V79.36l3.29.67v3.61l3.92.79V80.79a7.86,7.86,0,0,0,.83,0c2,0,6-.44,6-4.71A7.89,7.89,0,0,0,224.27,68.46ZM213,58.74l2,.39,3.81.77c2.79.57,3.32,2.44,3.4,3.39a2.85,2.85,0,0,1,0,.57c0,2.66-3.4,1.87-3.4,1.87L213,64.56Zm11.24,15.83a2.2,2.2,0,0,1-2,2.36h0a6.1,6.1,0,0,1-2.1-.08L213,75.42V68.29l2,.39,5.11,1a6.73,6.73,0,0,1,2.1.79A4.36,4.36,0,0,1,224.24,74.57Z"/></g><path class="e" d="M541.6,356.48v8.14h0a6.52,6.52,0,0,1-3.25,5.78L316.08,494.91a23.2,23.2,0,0,1-23.42,0L56.62,357a6.54,6.54,0,0,1-3.26-5.71V345L59,349.21,278.88,221.1a23.2,23.2,0,0,1,23.42,0L536.12,362.7Z"/><path class="n" d="M278.88,213.16,56.63,337.68a6.6,6.6,0,0,0,0,11.4l236,137.9A23.2,23.2,0,0,0,316,487L538.33,362.46a6.6,6.6,0,0,0,0-11.4l-236-137.9A23.2,23.2,0,0,0,278.88,213.16Z"/><path class="o" d="M248.11,441c9.91,6.51,38.82,16.47,52.14,7.32,35.94-24.69-11.73-25.44-21.33-36.74s-16-20.28-28.54-11.55C236.7,409.56,231.17,429.89,248.11,441Z"/><path class="p" d="M541.59,33.58v323.6a6.44,6.44,0,0,1-3.25,5.27l-94,52.67L316.08,487a23.18,23.18,0,0,1-23.41,0l-123-71.85-113-66a6.42,6.42,0,0,1-3.25-5.27V33.58Z"/><polygon class="q" points="481.01 379.83 254.33 506.49 29 374.36 231.32 254.3 481.01 379.83"/><path class="m" d="M306.13,58.44l-38.48-5.35a7.79,7.79,0,0,1-7.08-8.19V11.35c0-3.15,3.86-6.55,7-6.12L306,10.58a7.79,7.79,0,0,1,7.08,8.19V52.32C313.08,55.47,309.22,58.87,306.13,58.44Z"/><path class="r" d="M313.13,53.27l-38.48-5.35a7.79,7.79,0,0,1-7.08-8.19V6.18c0-3.15,3.86-6.54,6.92-6.15L313,5.38A7.79,7.79,0,0,1,320,13.57V47.16C320.08,50.3,316.22,53.7,313.13,53.27Z"/><path class="s" d="M482.77,258V376.16a4.46,4.46,0,0,1-6.7,3.86L348.21,309.31a52.12,52.12,0,0,0-26.18-7H163.57a8,8,0,0,1-8-8V179.69a8,8,0,0,1,8-8H322a52.13,52.13,0,0,1,26.19,7.05L478.8,251.05A8,8,0,0,1,482.77,258Z"/><polygon class="t" points="185.91 71.91 185.91 187.33 242.4 191.06 244.54 71.91 185.91 71.91"/><path class="u" d="M146.35,83a2.93,2.93,0,0,0-.48.62h0Z"/><path class="r" d="M467,185.92l-84.15-46.65a12.42,12.42,0,0,1-6.2-10.75V64.16a4.06,4.06,0,0,1,6.09-3.52l84.15,48.24a12.43,12.43,0,0,1,6.2,10.75V182.4a4.06,4.06,0,0,1-6.09,3.52Z"/><path class="v" d="M404.09,173.92v88.69l7.45,4.64v-89a7.54,7.54,0,0,0-3.74-6.5h0a2.47,2.47,0,0,0-3.71,2.17Z"/><ellipse class="m" cx="212.19" cy="71.91" rx="23.83" ry="29.15" transform="translate(5.18 157.61) rotate(-41.21)"/><path class="w" d="M449.95,208.67v88.7L457.4,302V213a7.52,7.52,0,0,0-3.73-6.5h0a2.47,2.47,0,0,0-3.72,2.14Z"/><path class="x" d="M218.2,73.77s3.54.19,3.54-4.69a6.31,6.31,0,0,0-3.6-5.44,10.1,10.1,0,0,0-2-.87V58.84L212.19,58v3.9l-3.3-.67V57.39l-3.91-.8v3.88l-3.49-.71V83.17l3.53.71v3.61l3.91.79V84.67l3.3.67V89l3.91.79V86.1a7.86,7.86,0,0,0,.83.05c2,0,6-.44,6-4.7A7.9,7.9,0,0,0,218.2,73.77ZM206.93,64l2,.4,3.81.77c2.8.56,3.32,2.43,3.4,3.38a2.85,2.85,0,0,1,0,.57c0,2.66-3.4,1.87-3.4,1.87L207,69.85Zm11.24,15.83a2.2,2.2,0,0,1-2,2.36h0a6.1,6.1,0,0,1-2.1-.08l-7.07-1.42V73.6l2,.39L214,75a6.11,6.11,0,0,1,2.1.79,4.34,4.34,0,0,1,2,4.1Z"/><path class="m" d="M457.72,190.51l-84.14-46.65a12.41,12.41,0,0,1-6.21-10.75V68.75a4.07,4.07,0,0,1,6.12-3.52l84.14,48.24a12.41,12.41,0,0,1,6.21,10.75V187a4.06,4.06,0,0,1-6.12,3.48Z"/><path class="y" d="M452.16,181.93l-73.08-40.37a10.69,10.69,0,0,1-5.34-9.25V76.92a3.5,3.5,0,0,1,5.24-3l73.09,41.74a10.68,10.68,0,0,1,5.33,9.25v54a3.49,3.49,0,0,1-5.24,3Z"/><ellipse class="m" cx="411.8" cy="127.33" rx="16.58" ry="28.72" transform="matrix(0.86, -0.5, 0.5, 0.86, -8.2, 224.23)"/><path class="x" d="M419.67,136c0,4.47-3.07,4-5.12,3.22v2.54c0,.58-.4.81-.91.52l-1.56-.9a2,2,0,0,1-.91-1.57v-2.53c-2.3-1.72-6-5.19-6-9.66v-.56c0-.48.34-.67.76-.43l2.59,1.5a1.68,1.68,0,0,1,.75,1.23,6.59,6.59,0,0,0,3.61,5.24s2.5,1.48,2.5-1.61-4.3-6.47-4.3-6.47-5.2-4.86-5.2-10.4c0-4.61,3-4.54,5.31-3.67V110c0-.58.41-.81.91-.52l1.56.91a2,2,0,0,1,.91,1.56v2.52a12.59,12.59,0,0,1,4.92,9.53c0,.52-.31.75-.76.5L416.07,123a1.69,1.69,0,0,1-.76-1.23,5.39,5.39,0,0,0-2.45-4.4c-2.73-1.58-2.71.5-2.71,1.55s.32,2.52,2.71,5S419.67,129.84,419.67,136Z"/><polygon class="e" points="287.97 26.67 287.97 39.01 276.27 30.33 287.97 26.67"/><polygon class="z" points="287.97 12.16 287.97 26.67 276.27 30.33 287.97 12.16"/><polygon class="z" points="287.97 41.11 287.97 50.74 276.27 32.54 287.97 41.11"/><polygon class="aa" points="287.97 26.67 287.97 39.01 299.68 33.58 287.97 26.67"/><polygon class="y" points="287.97 12.16 287.97 26.67 299.68 33.58 287.97 12.16"/><polygon class="y" points="287.98 41.11 287.98 50.74 299.67 35.79 287.98 41.11"/><path class="ab" d="M479.76,259.77V378a4.46,4.46,0,0,1-6.7,3.86l-123.57-53.4c-2.59-1.12-5.18-2.25-7.67-3.56a52.11,52.11,0,0,0-21-5.84L310,318.08,163.57,302.26a8,8,0,0,1-8-8V179.69a8,8,0,0,1,8-8l146.56,15.83,10.56.91a52.13,52.13,0,0,1,21.17,5.85c2.56,1.34,5.21,2.5,7.85,3.66l126.08,54.9A8,8,0,0,1,479.76,259.77Z"/><path class="ac" d="M473.41,265.17V370.38a4,4,0,0,1-6,3.44L346,320.59c-2.3-1-4.6-2-6.83-3.16a46.42,46.42,0,0,0-18.71-5.21l-9.66-.83-141-15.24a7.1,7.1,0,0,1-7.1-7.1h0V187a7.09,7.09,0,0,1,7.09-7.09h0l141.12,15.25,9.41.8a46.34,46.34,0,0,1,18.84,5.22c2.28,1.19,4.64,2.23,7,3.25L469.88,259A7.09,7.09,0,0,1,473.41,265.17Z"/><path class="ad" d="M319.18,234.9v46.58a14.15,14.15,0,0,1-16,14.35L194.9,283.77a18.49,18.49,0,0,1-16-17.92V219.93a4.75,4.75,0,0,1,5.28-4.73L224,219.64a11.54,11.54,0,0,1,9.38,7.46,19.55,19.55,0,0,0,15.68,12.24,14.9,14.9,0,0,0,15.31-8A11.48,11.48,0,0,1,276,225.39l38.6,4.29A5.22,5.22,0,0,1,319.18,234.9Z"/><path class="ae" d="M187.12,219.15v-19a8.87,8.87,0,0,1,8.87-8.87q.43,0,.85,0l107.73,12.11a8.87,8.87,0,0,1,8,8.83V234.8l-62.73,13.63Z"/><path class="af" d="M183.43,221V202a8.87,8.87,0,0,1,8.87-8.87q.43,0,.85,0l107.73,12.11a8.86,8.86,0,0,1,8,8.83v22.54l-62.73,13.63Z"/><line class="ag" x1="168.75" y1="299.42" x2="171.39" y2="299.69"/><polyline class="ah" points="176.68 300.24 329.89 316.02 468.55 377.35"/><line class="ag" x1="470.98" y1="378.43" x2="473.41" y2="379.51"/><path class="ai" d="M316.49,237.8v46.58a14.14,14.14,0,0,1-16,14.34l-108.29-12a18.5,18.5,0,0,1-16-17.92V222.83a4.75,4.75,0,0,1,5.28-4.73l39.81,4.43a11.54,11.54,0,0,1,9.38,7.47,19.58,19.58,0,0,0,15.68,12.24,14.92,14.92,0,0,0,15.32-8,11.5,11.5,0,0,1,11.61-6l38.6,4.3A5.22,5.22,0,0,1,316.49,237.8Z"/><path class="aj" d="M382.2,137v88.69l7.45,4.64v-89a7.54,7.54,0,0,0-3.74-6.5h0A2.47,2.47,0,0,0,382.2,137Z"/><line class="ag" x1="168.75" y1="176.37" x2="171.39" y2="176.64"/><polyline class="ah" points="176.68 177.19 329.89 192.97 468.55 254.31"/><line class="ag" x1="470.98" y1="255.38" x2="473.41" y2="256.46"/><path class="ak" d="M431.42,145.64v88.69l7.45,4.64V150a7.54,7.54,0,0,0-3.73-6.5h0a2.48,2.48,0,0,0-3.72,2.11Z"/><path class="al" d="M274.73,73.69V126l8.65,1.35V75A5.17,5.17,0,0,0,279,70.15h0a3.55,3.55,0,0,0-4.32,3.54Z"/><path class="am" d="M297.49,117.44v52.28l8.65,1.35V118.79a5.17,5.17,0,0,0-4.32-4.88h0a3.57,3.57,0,0,0-4.33,3.53Z"/><path class="an" d="M222,113v52.28l8.65,1.35V114.34a5.17,5.17,0,0,0-4.33-4.88h0A3.55,3.55,0,0,0,222,113Z"/><path class="ao" d="M196.13,142.83v52.29l8.65,1.34V144.18a5.18,5.18,0,0,0-4.32-4.88h0a3.57,3.57,0,0,0-4.33,3.53Z"/><polygon class="ai" points="193.91 202.66 193.91 209.31 231.65 214.01 231.65 207.13 193.91 202.66"/><circle class="ap" cx="114.34" cy="243.54" r="10.63"/><path class="aq" d="M383.75,423.76l-.74,1.3-55.41-32-47.11,27.15a16.86,16.86,0,0,1-16.84,0l-84.16-48.58a4.62,4.62,0,0,1-.05-8l8.25-4.85-71.62-40.9a5,5,0,0,1-2.47-4.31V259.72h1.49v53.84a3.43,3.43,0,0,0,1.76,3l72.35,41.36,94.29-55.3.77,1.31-104.06,61a3.09,3.09,0,0,0-1.54,2.69,3,3,0,0,0,1.57,2.69l83.34,48.17a16.86,16.86,0,0,0,16.84,0l97.46-56.07.75,1.3-49.48,28.5Z"/><circle class="aa" cx="114.34" cy="243.54" r="4.77"/><path class="ar" d="M359.83,403.31,341,392.45c-1-.55-.83-1.5.26-2.14l.63-.36a4.13,4.13,0,0,1,3.71-.15l18.8,10.85c1,.55.83,1.51-.27,2.14l-.63.36A4.08,4.08,0,0,1,359.83,403.31Z"/><path class="as" d="M458.73,280,357.61,233.54a4.58,4.58,0,0,1-2.53-3.81h0c0-1.48,1.13-2.16,2.53-1.53l101.12,46.46a4.59,4.59,0,0,1,2.52,3.81h0A1.64,1.64,0,0,1,458.73,280Z"/><path class="at" d="M458.73,297.18,357.61,250.71a4.58,4.58,0,0,1-2.53-3.81h0c0-1.48,1.13-2.16,2.53-1.53l101.12,46.47a4.58,4.58,0,0,1,2.52,3.81h0a1.62,1.62,0,0,1-2.52,1.53Z"/><polygon class="au" points="404.23 382.78 420.15 376.22 412.19 361.84 399.22 368.29 404.23 382.78"/><polygon class="au" points="341.53 289.99 357.16 283.56 361.94 289.99 354.52 303.61 341.53 289.99"/><path class="au" d="M415.37,376.1l-53.72-31c-3.74-2.16-6.77-8-6.77-12.94V289c0-5,3-7.28,6.77-5.12l53.72,31c3.73,2.16,6.77,8,6.77,12.94V371C422.14,376,419.1,378.26,415.37,376.1Z"/><path class="av" d="M399.1,383l-53.72-31c-3.74-2.16-6.77-8-6.77-12.94V295.92c0-5,3-7.27,6.77-5.11l53.72,31c3.74,2.16,6.77,8,6.77,12.94v43.14C405.87,382.89,402.84,385.18,399.1,383Z"/><path class="au" d="M377.69,356l-15.91-9.19,3.38-11.2a13.82,13.82,0,0,1-2.19-7c0-4.29,3-6,6.76-3.85a14.91,14.91,0,0,1,6.76,11.73c0,2.26-.85,3.81-2.19,4.44Z"/><polygon class="au" points="368.44 248.88 363.52 251.24 366.24 251.03 368.44 248.88"/><path class="au" d="M407.87,288.81V316.3l-5,2.4V291.21c0-14.19-9.69-30.92-22.08-38.08-5.11-2.94-10.16-3.91-14.5-2.88.49-.37,1-.67,1.45-1,5-2.88,11.49-2.34,18.11,1.45C398.19,257.89,407.87,274.61,407.87,288.81Z"/><path class="au" d="M369.73,257.46c-1.44,1.81-2.24,4.57-2.24,8.07V293l-5.06,2.4v-27.5c0-4.75,1.39-8.18,4-9.68A6.6,6.6,0,0,1,369.73,257.46Z"/><path class="y" d="M402.82,291.21V318.7l-7.58-4.33V291.21c0-11.37-8.36-25.81-18.29-31.52a14.83,14.83,0,0,0-7.22-2.23,6.6,6.6,0,0,0-3.3.79c-2.59,1.5-4,4.93-4,9.68v27.49l-7.57-4.33V267.93c0-7.58,2.76-13.35,7.76-16.24a15.57,15.57,0,0,1,3.6-1.44c4.34-1,9.39-.06,14.5,2.88C393.13,260.29,402.82,277,402.82,291.21Z"/><path class="ab" d="M291.43,420c-1.13-1-4.65-1-6-.31-.67.37-1.5,2.67-1.5,2.67l8.62.69S292,420.5,291.43,420Z"/><path class="ab" d="M283.93,419c.85-1.39,6.31-1.12,7.68-.24,2.2,1.41,2.79,13,2.79,13,.06,1-.73,6.13-4.26,6.13-5.53,0-6.28-5.22-6.28-6.4C283.86,431.48,282.49,421.48,283.93,419Z"/><polygon class="aw" points="291.85 412.21 284.54 412.21 284.76 421.64 291.85 422.84 291.85 412.21"/><path class="aw" d="M265,418.8a9,9,0,0,0,2.12-5.51l.33-9.49-7,.27-1,9.27S262.84,421.32,265,418.8Z"/><path class="ab" d="M258.31,410.48c1.14-.8,4.1.78,5.49.92s.54,2.19.54,2.19l3.37-2.65s.74-.23.82.68v3.93a5.94,5.94,0,0,1-1.68,4.11,34.24,34.24,0,0,1-6,2.64c-4.8,1.49-7,3-9.45,1.51-3.51-2.12-1.92-3.66,1.27-6.29,2-1.62,3.17-1.83,4.31-3.93C257.72,412.29,258,410.73,258.31,410.48Z"/><path class="aw" d="M246.49,316.84l1.28,8.45a3.21,3.21,0,0,0,3,2.79h0a3.21,3.21,0,0,0,3.4-3.55,19.89,19.89,0,0,0-.27-2.52C251.49,313.34,246.49,316.84,246.49,316.84Z"/><path class="ax" d="M258.95,285.34a4.1,4.1,0,0,1-.19.91l-3.75,25c.07,3.41-1.46,8.92-1.46,8.92h-.24c-1,.06-4.94.31-6.19.51-.69.12-1.18,0-1.29-.61-.63-3.4,1-9.2,1-9.2l3.32-27.55a4.58,4.58,0,0,1,5.77-2.86A4.53,4.53,0,0,1,258.95,285.34Z"/><path class="ab" d="M259.1,256s-4.09,7.79-1.51,10.43l6.8-7.5Z"/><path class="ay" d="M272.26,329.1l11.49,84.49s6.64,5.67,10.06,1.62l-4-86.11Z"/><path class="az" d="M259.2,327.91v78.75s3.87,5.66,9.53,1.5l6.76-75.35Z"/><path class="ba" d="M254.71,280.34h13a18,18,0,0,1,8.68,2.25l12.79,7.1-.73,4.17a47.34,47.34,0,0,0-.69,9.87c.48,13.28.13,20.76,4.12,32.84,0,0-10.79,5.9-20.84,2.62a31.57,31.57,0,0,1-15.1-10.51C259.24,313.89,254.71,280.34,254.71,280.34Z"/><path class="aw" d="M262.65,282.34c4.12.66,8.89-3,11.08-7.5h0v-.11h.08a2.79,2.79,0,0,0,.58.07,2.86,2.86,0,0,0,2.07-.88,3.08,3.08,0,0,0,.85-2.08,2.7,2.7,0,0,0-1-2.11,2.13,2.13,0,0,0-.58-.43A2,2,0,0,0,275,269a2.37,2.37,0,0,0-.69-.11,3,3,0,0,0-2,.73c-.15-1.85-.61-5.77-2-7.19a1.44,1.44,0,0,0-1.23-.54,13.62,13.62,0,0,1-7.11-2,11.53,11.53,0,0,0-5.85,8.54C255.31,274.38,257.49,281.57,262.65,282.34Z"/><path class="ab" d="M257.92,255.38a9.32,9.32,0,0,0,4.12,4.46,13.62,13.62,0,0,0,7.11,2,1.3,1.3,0,0,1,1.23.58c1.39,1.42,1.85,5.34,2,7.19a3,3,0,0,1,2-.73,2.37,2.37,0,0,1,.69.11,2,2,0,0,1,.69.27,2.13,2.13,0,0,1,.58.43,2.7,2.7,0,0,1,1,2.11,3.08,3.08,0,0,1-.85,2.08,2.86,2.86,0,0,1-2.07.88,2.79,2.79,0,0,1-.58-.07v.07h0l1.31,2.58s3,.69,2.73-2.77c-.23-2.88,7.42-6.27,4-12.77a10.44,10.44,0,0,0-6.5-5c-2.77-.77-6.69-2.23-8.27-4.73-2.54-4-6.65-3.23-6.27-1.27C260.69,250.88,256.38,251,257.92,255.38Z"/><path class="aw" d="M271.15,289a9.69,9.69,0,0,0,3.25-3.42,6.33,6.33,0,0,0,.86-3.9l-1-10.72-7.39,1.36v14a3,3,0,0,0,4.28,2.68Z"/><path class="bb" d="M240.63,329.17l.58,7.9a.32.32,0,0,0,.48.27l8.75-4.6a4,4,0,0,1,1.91-.49h11.57a.57.57,0,0,0,.58-.55v-8a.56.56,0,0,0-.57-.55H252.35a4,4,0,0,0-1.91.49l-9.52,5A.56.56,0,0,0,240.63,329.17Z"/><path class="bc" d="M264.49,331.7v-8.21a.33.33,0,0,0-.49-.27l-9.33,4.91a3.86,3.86,0,0,1-1.91.5H241.21a.56.56,0,0,0-.58.54h0v8a.57.57,0,0,0,.58.55h11.56a4,4,0,0,0,1.91-.49l9.53-5A.55.55,0,0,0,264.49,331.7Z"/><path class="aw" d="M254.2,324.53a3.22,3.22,0,0,1-2.86,3.54l-.34,0h-.2a3.22,3.22,0,0,1-3-2.8l-.69-4.59c1.25-.2,5.18-.45,6.19-.51a16.86,16.86,0,0,1,.63,1.83A19.42,19.42,0,0,1,254.2,324.53Z"/><path class="aw" d="M261.11,332.73l-8.11,2.7a3.2,3.2,0,0,0-2.25,3.42h0a3.22,3.22,0,0,0,4.08,2.75,18.09,18.09,0,0,0,2.43-.69C265.39,337,261.11,332.73,261.11,332.73Z"/><path class="bd" d="M258.66,331.88l4.15,5.12,15.26-12.1a29,29,0,0,0,10-15.45l3.54-13.79a4.58,4.58,0,0,0-2.48-5.94,4.53,4.53,0,0,0-5.49,1.7,2.7,2.7,0,0,0-.44.82L277,309.41a19.88,19.88,0,0,1-4,6.63Z"/></svg>
