
<svg width="144px" height="144px" viewBox="0 0 144 144" version="1.1" xmlns="http://www.w3.org/2000/svg" xmlns:xlink="http://www.w3.org/1999/xlink">
  <!-- Generator: Sketch 49.2 (51160) - http://www.bohemiancoding.com/sketch -->
  <desc>Created with Sketch.</desc>
  <defs></defs>
  <g id="Page-1" stroke="none" stroke-width="1" fill="none" fill-rule="evenodd">
    <g id="Selly.gg-Payment-Copy" transform="translate(-1272.000000, -981.000000)">
      <g id="f1" transform="translate(394.000000, 963.000000)">
        <g id="Group-20" transform="translate(780.000000, 18.000000)">
          <g id="Ico_Extensible" transform="translate(98.000000, 0.000000)">
            <circle id="Oval" fill="#EDF8FF" cx="72" cy="72" r="72"></circle>
            <path d="M59.8427661,95.8252428 C55.5522607,85.7571224 49.0831487,78.8866833 40.4354301,75.2139255 L37.2766169,83.1618354 L24,59.0065961 L50.4887738,50.8840481 L47.4165367,59.0065961 C55.2420073,62.4409675 62.1592831,67.8434106 68.1683642,75.2139255 C66.0178971,78.6722248 64.4120592,81.669733 63.3508504,84.20645 C62.2896417,86.7431671 61.1202802,90.616098 59.8427661,95.8252428 Z M64.3857177,118 L64.9593854,109.831382 C67.0314575,85.0320527 78.1398966,68.1542951 98.2847026,59.1981088 L95.123462,50.8567274 L121,59.1981088 L108.097467,83.0900517 L105.054628,75.1903547 C89.6115416,82.0815968 81.80828,96.3514786 81.6448434,118 L64.3857177,118 Z" id="Combined-Shape" fill="#3E9CFA"></path>
            <polygon id="Path-3" fill="#82C8FA" points="64.0502017 61.1641271 72.823514 69.3196207 81.3381769 61.1641271 81.3381769 40.2921918 90.44269 40.2921918 72.823514 19 55.2299603 40.2921918 64.0502017 40.2921918"></polygon>
          </g>
        </g>
      </g>
    </g>
  </g>
</svg>