<svg xmlns="http://www.w3.org/2000/svg" xmlns:xlink="http://www.w3.org/1999/xlink" viewBox="0 0 678.47 705.17"><defs><style>.cls-34,.cls-6{opacity:.5}.cls-5,.cls-6{fill:#4eedf9}.cls-7{fill:#a7f3f9}.cls-8{fill:#cadbf7}.cls-9{fill:#ddeafe}.cls-10,.cls-17{fill:#3de6fd}.cls-11{fill:#92f2fe}.cls-15{fill:none;stroke:#3de6fd;stroke-linecap:round;stroke-linejoin:round;stroke-width:1.69px}.cls-16{fill:#2bcaeb}.cls-17{font-size:12.89px;font-family:RenogareSoft-Regular,Renogare Soft}.cls-18{fill:#3da7ee}.cls-19{fill:#45bdfb}.cls-24{fill:#1b4dbd;opacity:.1}.cls-25{fill:#fff}.cls-31{fill:#5ce495}.cls-34,.cls-35{fill:#359aea}.cls-35{opacity:.2}</style><linearGradient id="linear-gradient" x1="339.24" y1="391.09" x2="339.24" y2="541.45" gradientUnits="userSpaceOnUse"><stop offset="0" stop-color="#1b4bbb"/><stop offset=".13" stop-color="#1b4dbf" stop-opacity=".91"/><stop offset=".38" stop-color="#1a51cb" stop-opacity=".68"/><stop offset=".73" stop-color="#1859de" stop-opacity=".3"/><stop offset="1" stop-color="#175fed" stop-opacity="0"/></linearGradient><linearGradient id="linear-gradient-2" x1="339.24" y1="292.71" x2="339.24" y2="657.73" xlink:href="#linear-gradient"/><linearGradient id="linear-gradient-3" x1="693.25" y1="21.72" x2="184.99" y2="542.79" gradientUnits="userSpaceOnUse"><stop offset="0" stop-color="#fff"/><stop offset=".63" stop-color="#dbe6fa"/><stop offset="1" stop-color="#cadbf7"/></linearGradient><linearGradient id="linear-gradient-4" x1="-97.5" y1="400.84" x2="379.46" y2="400.84" gradientUnits="userSpaceOnUse"><stop offset="0" stop-color="#0c59f1"/><stop offset=".07" stop-color="#1669f3"/><stop offset=".24" stop-color="#2c8bf7"/><stop offset=".42" stop-color="#3da5fb"/><stop offset=".6" stop-color="#49b7fd"/><stop offset=".79" stop-color="#50c2ff"/><stop offset=".99" stop-color="#52c6ff"/></linearGradient><linearGradient id="linear-gradient-5" x1="118.99" y1="243.82" x2="209.5" y2="193.36" gradientUnits="userSpaceOnUse"><stop offset="0" stop-color="#fff" stop-opacity="0"/><stop offset=".81" stop-color="#3de6fd" stop-opacity=".4"/></linearGradient><linearGradient id="linear-gradient-6" x1="159.44" y1="302.75" x2="159.44" y2="229.01" gradientUnits="userSpaceOnUse"><stop offset=".19" stop-color="#3de6fd" stop-opacity=".4"/><stop offset="1" stop-color="#fff" stop-opacity="0"/></linearGradient><linearGradient id="linear-gradient-7" x1="159.44" y1="341.21" x2="159.44" y2="267.48" xlink:href="#linear-gradient-6"/><linearGradient id="linear-gradient-8" x1="265.69" y1="58.7" x2="585.6" y2="405.97" gradientUnits="userSpaceOnUse"><stop offset="0" stop-color="#dcf0fb"/><stop offset=".3" stop-color="#d8effb"/><stop offset=".57" stop-color="#cdedfb"/><stop offset=".83" stop-color="#bbe9fc"/><stop offset="1" stop-color="#aae6fc"/></linearGradient><linearGradient id="linear-gradient-9" x1="204.76" y1="412" x2="290.85" y2="412" gradientTransform="matrix(.87 .5 -1.5 .29 712.5 228.02)" xlink:href="#linear-gradient-4"/><linearGradient id="linear-gradient-10" x1="225.1" y1="422.87" x2="275.1" y2="422.87" gradientTransform="matrix(.87 .5 -1.5 .29 712.5 228.02)" xlink:href="#linear-gradient-4"/><linearGradient id="linear-gradient-11" x1="427.86" y1="150.34" x2="469.24" y2="150.34" xlink:href="#linear-gradient-4"/><linearGradient id="linear-gradient-12" x1="427.86" y1="158.09" x2="456.25" y2="158.09" xlink:href="#linear-gradient-4"/></defs><title>no small human selly</title><g id="Layer_2" data-name="Layer 2"><g id="Layer_3" data-name="Layer 3"><path fill="url(#linear-gradient)" opacity=".5" d="M590.45 405.01v215.38H88.03V406.61l502.42-1.6z"/><path fill="url(#linear-gradient-2)" opacity=".5" d="M678.46 400.86v304.31H.01V403.12l678.45-2.26z"/><path d="M678.46 392.87v21.69a17.2 17.2 0 0 1-8.62 14.72l-297.55 169.1a47.42 47.42 0 0 1-47.73.19L8.73 416.62A17.23 17.23 0 0 1 0 401.71v-24.26l10.23 8.09 298.6-166.48a47.52 47.52 0 0 1 47.25 0L669.4 398.9z" fill="#2767d5"/><path d="M356.1 195.88l313.6 180a17.46 17.46 0 0 1 .14 30.2L372.29 575.19a47.48 47.48 0 0 1-47.72.18L8.74 393.4a17.45 17.45 0 0 1 0-30.26l300.09-167.27a47.48 47.48 0 0 1 47.27.01z" fill="url(#linear-gradient-3)"/><ellipse class="cls-5" cx="380.01" cy="43.05" rx="23.26" ry="40.29" transform="rotate(-30.31 380.01570781 43.04782698)"/><ellipse class="cls-6" cx="391.74" cy="36.72" rx="23.26" ry="40.29" transform="rotate(-30.31 391.75664413 36.71685973)"/><path class="cls-7" d="M384.93 46.69s3.84 1.56 3.84-4.49c0-3.48-2.11-6.32-3.91-8.1a16.25 16.25 0 0 0-2.22-1.85v-4.87l-4.26-2.46v4.81l-3.58-2.07v-4.81l-4.26-2.45v4.8l-3.83-2.2v29l3.83 2.22v4.48l4.26 2.46V56.7l3.58 2.07v4.47l4.26 2.46v-4.51c.31.14.61.27.91.38 2.16.78 6.51 1.71 6.51-3.58a14.71 14.71 0 0 0-5.13-11.3zm-12.26-16.31l2.13 1.23 4.14 2.39a6.88 6.88 0 0 1 3.7 5.49 4.4 4.4 0 0 1 0 .71c0 3.29-3.7 1-3.7 1l-6.27-3.62zm12.22 23.87c0 2-1.12 2.34-2.25 2.15a7.18 7.18 0 0 1-2.28-.89l-7.69-4.43v-8.86l2.13 1.23 5.56 3.21a10.3 10.3 0 0 1 2.28 1.77 7.76 7.76 0 0 1 2.25 5.82z"/><ellipse class="cls-5" cx="635.94" cy="289.35" rx="23.26" ry="40.29" transform="rotate(-30.31 635.96402197 289.35565934)"/><ellipse class="cls-6" cx="647.67" cy="283.02" rx="23.26" ry="40.29" transform="matrix(.86 -.5 .5 .86 -54.3 365.56)"/><path class="cls-7" d="M643.88 304.11c0 6.23-4.28 5.6-7.14 4.49v3.55c0 .8-.56 1.12-1.26.72l-2.18-1.26a2.8 2.8 0 0 1-1.27-2.18v-3.54c-3.21-2.4-8.41-7.24-8.41-13.48v-.78c0-.67.47-.94 1.06-.6l3.62 2.09a2.34 2.34 0 0 1 1.05 1.71c.12 1.68.92 4.94 5 7.31 0 0 3.49 2.08 3.49-2.23s-6-9-6-9-7.26-6.78-7.26-14.51c0-6.43 4.27-6.34 7.42-5.12v-3.43c0-.8.57-1.12 1.27-.72l2.18 1.26a2.79 2.79 0 0 1 1.26 2.19v3.52a17.54 17.54 0 0 1 6.9 13.18c0 .73-.44 1.05-1.06.7l-3.72-2.15a2.35 2.35 0 0 1-1.05-1.72c-.12-1.61-.73-4.58-3.42-6.14-3.82-2.2-3.79.7-3.79 2.16s.45 3.53 3.79 7 9.52 8.3 9.52 16.98z"/><path class="cls-5" d="M578 165.61l-42.09-24.3a15.5 15.5 0 0 1-7.75-13.41V86.29a5.08 5.08 0 0 1 7.61-4.4l42.09 24.31a15.47 15.47 0 0 1 7.74 13.41v41.61a5.07 5.07 0 0 1-7.6 4.39z"/><path class="cls-6" d="M591 159.58l-42.09-24.3a15.49 15.49 0 0 1-7.74-13.41V80.26a5.07 5.07 0 0 1 7.6-4.39l42.09 24.3a15.5 15.5 0 0 1 7.75 13.41v41.61a5.07 5.07 0 0 1-7.61 4.39z"/><path class="cls-8" d="M556.9 117.72v15.56l-13-16.4 13 .84z"/><path class="cls-9" d="M556.9 99.44v18.28l-13-.84 13-17.44zM556.9 135.93v12.13l-13-28.39 13 16.26z"/><path class="cls-10" d="M556.9 117.72v15.56l13.01-1.38-13.01-14.18z"/><path class="cls-11" d="M556.9 99.44v18.28l13.01 14.18-13.01-32.46zM556.91 135.93v12.13l13-13.38-13 1.25z"/><path d="M260.6 479.8a23.38 23.38 0 0 1-11.7-3.13L96.42 388.82a8.92 8.92 0 0 1 0-15.47l92.32-51.47.49.87-92.3 51.47a7.92 7.92 0 0 0 0 13.74l152.47 87.85a22.47 22.47 0 0 0 22.54-.09l143.66-81.64.49.87-143.65 81.64a23.36 23.36 0 0 1-11.84 3.21z" fill="url(#linear-gradient-4)"/><path fill="url(#linear-gradient-5)" d="M78.71 240.7l128.48-74.21 60.23 11.48v8.28l-146.93 84.89"/><path fill="url(#linear-gradient-6)" d="M85.3 312.78V195.85l87.03-54.18 61.24 82.85v57.22L85.3 312.78z"/><path class="cls-11" d="M317.76 155.27l-102.52 59.19-45.75-26.41 102.53-59.19 45.74 26.41z"/><path class="cls-11" d="M317.76 157.01L215.24 216.2l-45.75-26.41 102.53-59.19 45.74 26.41z"/><path class="cls-15" d="M280.09 138.18L300.55 150c-4.77 2.76-4.8 7.21-.06 9.94a10.3 10.3 0 0 0 1.15.58l-77.34 44.63a9.62 9.62 0 0 0-1-.66c-4.74-2.74-12.45-2.72-17.21 0l-20.46-11.81c4.77-2.75 4.79-7.2.05-9.94l77.19-44.56c4.74 2.76 12.45 2.75 17.22 0z"/><ellipse class="cls-16" cx="240.91" cy="170.09" rx="9.11" ry="16.11" transform="rotate(-83.07 240.92443774 170.08791818)"/><path class="cls-16" d="M276.1 171.75l-32.32 18.65-3.25-1.87 32.32-18.66 3.25 1.88zM204.93 195.95l17.66-10.2 2.19 1.27-17.65 10.2-2.2-1.27z"/><text class="cls-17" transform="matrix(.87 -.5 .87 .5 209.29 191.82)">1</text><ellipse class="cls-10" cx="273.57" cy="152.51" rx="9.9" ry="5.72" transform="rotate(-.31 274.97872005 152.30120835)"/><path class="cls-16" d="M265.56 158.08l17.66-10.19 1.38.79-17.66 10.2-1.38-.8z"/><path class="cls-18" d="M169.49 188.05v1.74l45.75 26.41v-1.74l-45.75-26.41z"/><path class="cls-19" d="M317.76 155.27v1.74L215.24 216.2v-1.74l102.52-59.19z"/><path fill="url(#linear-gradient-7)" d="M85.3 351.25V234.31l87.03-54.17 61.24 82.85v57.21L85.3 351.25z"/><path class="cls-11" d="M233.57 318.46l-102.52 59.2-45.75-26.41 102.53-59.2 45.74 26.41z"/><path class="cls-11" d="M233.57 320.2l-102.52 59.2-45.75-26.41 102.53-59.2 45.74 26.41z"/><path class="cls-15" d="M195.9 301.37l20.46 11.81c-4.77 2.75-4.8 7.2-.06 9.94a12.35 12.35 0 0 0 1.15.58l-77.34 44.65a11.58 11.58 0 0 0-1-.67c-4.74-2.73-12.45-2.72-17.21 0l-20.45-11.8c4.76-2.76 4.78-7.21 0-9.94l77.19-44.57c4.78 2.77 12.49 2.75 17.26 0z"/><ellipse class="cls-16" cx="156.72" cy="333.28" rx="9.11" ry="16.11" transform="rotate(-83.07 156.73769244 333.29117541)"/><path class="cls-16" d="M191.91 334.94l-32.32 18.66-3.25-1.88 32.32-18.66 3.25 1.88zM120.74 359.15l17.66-10.2 2.19 1.27-17.65 10.19-2.2-1.26z"/><text class="cls-17" transform="matrix(.87 -.5 .87 .5 125.1 355.02)">1</text><ellipse class="cls-10" cx="189.38" cy="315.71" rx="9.9" ry="5.72" transform="rotate(-.31 189.51438366 316.5651418)"/><path class="cls-16" d="M181.37 321.28l17.66-10.2 1.38.8-17.66 10.19-1.38-.79z"/><path class="cls-18" d="M85.3 351.25v1.74l45.75 26.41v-1.74L85.3 351.25z"/><path class="cls-19" d="M233.57 318.46v1.74l-102.52 59.2v-1.74l102.52-59.2z"/><path class="cls-11" d="M233.57 280.08l-102.52 59.19-45.75-26.41 102.53-59.19 45.74 26.41z"/><path class="cls-11" d="M233.57 281.82l-102.52 59.19L85.3 314.6l102.53-59.19 45.74 26.41z"/><path class="cls-15" d="M195.9 263l20.46 11.81c-4.77 2.75-4.8 7.2-.06 9.93a10.35 10.35 0 0 0 1.15.59L140.11 330a8.29 8.29 0 0 0-1-.67c-4.74-2.73-12.45-2.72-17.21 0l-20.45-11.81c4.76-2.75 4.78-7.2 0-9.94L178.68 263c4.74 2.75 12.45 2.74 17.22 0z"/><ellipse class="cls-16" cx="156.72" cy="294.9" rx="9.11" ry="16.11" transform="rotate(-83.07 156.73743642 294.91055306)"/><path class="cls-16" d="M191.91 296.56l-32.32 18.66-3.25-1.88 32.32-18.66 3.25 1.88zM120.74 320.76l17.66-10.19 2.19 1.26-17.65 10.2-2.2-1.27z"/><text class="cls-17" transform="matrix(.87 -.5 .87 .5 125.1 316.64)">1</text><ellipse class="cls-10" cx="189.38" cy="277.32" rx="9.9" ry="5.72" transform="rotate(-.31 189.61938366 277.75196649)"/><path class="cls-16" d="M181.37 282.89l17.66-10.19 1.38.79-17.66 10.2-1.38-.8z"/><path class="cls-18" d="M85.3 312.86v1.74l45.75 26.41v-1.74L85.3 312.86z"/><path class="cls-19" d="M233.57 280.08v1.74l-102.52 59.19v-1.74l102.52-59.19z"/><path class="cls-11" d="M233.57 241.7l-102.52 59.19-45.75-26.41 102.53-59.2 45.74 26.42z"/><path class="cls-11" d="M233.57 243.44l-102.52 59.19-45.75-26.41 102.53-59.19 45.74 26.41z"/><path class="cls-15" d="M195.9 224.6l20.46 11.81c-4.77 2.76-4.8 7.21-.06 9.94a10.3 10.3 0 0 0 1.15.58l-77.34 44.65a9.62 9.62 0 0 0-1-.66c-4.74-2.74-12.45-2.72-17.21 0l-20.45-11.81c4.76-2.75 4.78-7.2 0-9.94l77.19-44.57c4.78 2.77 12.49 2.76 17.26 0z"/><ellipse class="cls-16" cx="156.72" cy="256.52" rx="9.11" ry="16.11" transform="rotate(-83.07 156.73653587 256.51928618)"/><path class="cls-16" d="M191.91 258.17l-32.32 18.66-3.25-1.87 32.32-18.66 3.25 1.87zM120.74 282.38l17.66-10.2 2.19 1.27-17.65 10.19-2.2-1.26z"/><text class="cls-17" transform="matrix(.87 -.5 .87 .5 125.1 278.25)">1</text><ellipse class="cls-10" cx="189.38" cy="238.94" rx="9.9" ry="5.72" transform="rotate(-.31 189.72438366 238.93879118)"/><path class="cls-16" d="M181.37 244.51l17.66-10.2 1.38.8-17.66 10.19-1.38-.79z"/><path class="cls-18" d="M85.3 274.48v1.74l45.75 26.41v-1.74L85.3 274.48z"/><path class="cls-19" d="M233.57 241.7v1.74l-102.52 59.19v-1.74l102.52-59.19z"/><path d="M329.45 113.78v154.27A21.23 21.23 0 0 0 340 286.37l221.3 129.29a9.5 9.5 0 0 0 14.29-8.2V253.19A21.21 21.21 0 0 0 565 234.87L343.74 105.58a9.5 9.5 0 0 0-14.29 8.2z" stroke-miterlimit="10" fill="#2f85e6" stroke="#ecf3fc" stroke-width="4.61"/><path class="cls-8" d="M569.35 423.74v7.78a6.23 6.23 0 0 1-3.11 5.52l-136.1 79.51a22.2 22.2 0 0 1-22.39 0l-225.6-131.79a6.24 6.24 0 0 1-3.15-5.46v-6l5.41 4 133.81-83a22.2 22.2 0 0 1 22.39 0l223.5 135.39z"/><path d="M318.26 286.77l-136.1 79.51a6.3 6.3 0 0 0 0 10.89L407.75 509a22.18 22.18 0 0 0 22.38 0l136.1-79.51a6.31 6.31 0 0 0 0-10.9L340.64 286.77a22.18 22.18 0 0 0-22.38 0z" fill="#ecf3fc"/><path d="M339.34 119.23v152.5a3.59 3.59 0 0 0 1.78 3.1l219.54 128a1.82 1.82 0 0 0 2.74-1.58V248.79a3.58 3.58 0 0 0-1.77-3.1l-219.55-128a1.82 1.82 0 0 0-2.74 1.54z" fill="url(#linear-gradient-8)"/><path class="cls-9" d="M336.4 309.52l-9.2-5.31c-.89-.51-.78-1.42.25-2l3.92-2.26a3.83 3.83 0 0 1 3.48-.14l9.2 5.31c.9.51.78 1.41-.25 2l-3.91 2.26a3.89 3.89 0 0 1-3.49.14zM352 318.53l-9.81-5.67c-.9-.51-.78-1.41.25-2l3.91-2.26a3.86 3.86 0 0 1 3.49-.14l9.81 5.66c.89.52.78 1.42-.25 2l-3.91 2.25a3.89 3.89 0 0 1-3.49.16zM367.29 327.36l-9.81-5.67c-.9-.52-.78-1.42.25-2l3.91-2.26a3.89 3.89 0 0 1 3.49-.15l9.81 5.67c.9.52.78 1.42-.25 2l-3.91 2.26a3.89 3.89 0 0 1-3.49.15zM382.58 336.18l-9.81-5.66c-.89-.52-.78-1.42.25-2l3.91-2.26a3.89 3.89 0 0 1 3.49-.15l9.81 5.67c.9.51.78 1.42-.25 2l-3.91 2.22a3.86 3.86 0 0 1-3.49.18zM397.87 345l-9.81-5.66c-.89-.52-.78-1.42.25-2l3.91-2.25a3.86 3.86 0 0 1 3.49-.15l9.81 5.67c.9.51.79 1.41-.25 2l-3.91 2.26a3.89 3.89 0 0 1-3.49.13zM413.16 353.84l-9.81-5.66c-.89-.52-.78-1.42.25-2l3.91-2.26a3.89 3.89 0 0 1 3.49-.14l9.81 5.66c.9.52.79 1.42-.25 2l-3.91 2.26a3.89 3.89 0 0 1-3.49.14zM428.45 362.67l-9.81-5.67c-.89-.51-.78-1.41.25-2l3.91-2.26a3.89 3.89 0 0 1 3.49-.14l9.82 5.66c.89.52.78 1.42-.26 2l-3.91 2.25a3.86 3.86 0 0 1-3.49.16zM443.75 371.5l-9.82-5.67c-.89-.51-.78-1.42.25-2l3.92-2.26a3.83 3.83 0 0 1 3.48-.14l9.82 5.66c.89.52.78 1.42-.25 2l-3.92 2.26a3.87 3.87 0 0 1-3.48.15zM459 380.33l-9.82-5.67c-.89-.52-.78-1.42.25-2l3.92-2.26a3.87 3.87 0 0 1 3.48-.15l9.82 5.67c.89.51.78 1.42-.25 2l-3.92 2.26a3.87 3.87 0 0 1-3.48.15zM474.33 389.15l-9.82-5.66c-.89-.52-.78-1.42.26-2l3.91-2.25a3.87 3.87 0 0 1 3.48-.15l9.82 5.67c.89.51.78 1.41-.25 2l-3.91 2.24a3.86 3.86 0 0 1-3.49.15zM489.62 398l-9.81-5.66c-.9-.52-.79-1.42.25-2L484 388a3.89 3.89 0 0 1 3.49-.14l9.81 5.67c.89.51.78 1.41-.25 2l-3.91 2.26a3.89 3.89 0 0 1-3.52.21zM504.91 406.81l-9.81-5.67c-.9-.51-.79-1.41.25-2l3.91-2.26a3.89 3.89 0 0 1 3.49-.14l9.81 5.66c.89.52.78 1.42-.25 2l-3.91 2.26a3.89 3.89 0 0 1-3.49.15zM520.2 415.64l-9.81-5.64c-.9-.51-.78-1.41.25-2l3.91-2.26a3.86 3.86 0 0 1 3.49-.14l9.81 5.66c.89.52.78 1.42-.25 2l-3.91 2.25a3.89 3.89 0 0 1-3.49.13zM535.49 424.47l-9.81-5.67c-.9-.51-.78-1.42.25-2l3.91-2.26a3.89 3.89 0 0 1 3.49-.15l9.81 5.67c.9.52.78 1.42-.25 2l-3.89 2.26a3.89 3.89 0 0 1-3.51.15zM322.06 317.8l-9.2-5.31c-.89-.51-.78-1.42.25-2l8.63-5a3.83 3.83 0 0 1 3.48-.14l9.2 5.31c.9.51.78 1.41-.25 2l-8.62 5a3.89 3.89 0 0 1-3.49.14zM337.3 326.39l-9.81-5.67c-.89-.52-.78-1.42.25-2l8.25-4.77a3.89 3.89 0 0 1 3.49-.14l9.81 5.67c.89.51.78 1.41-.25 2l-8.25 4.76a3.89 3.89 0 0 1-3.49.15zM352.05 334.9l-9.81-5.67c-.9-.51-.78-1.41.25-2l8.25-4.76a3.87 3.87 0 0 1 3.48-.15L364 328c.89.52.78 1.42-.25 2l-8.25 4.77a3.89 3.89 0 0 1-3.45.13zM521.34 432.64l-16.21-9.36c-.9-.52-.78-1.42.25-2l8.25-4.77a3.87 3.87 0 0 1 3.48-.14l16.21 9.36c.9.51.79 1.42-.25 2l-8.24 4.76a3.89 3.89 0 0 1-3.49.15zM484.77 411.53l-9.77-5.67c-.89-.51-.78-1.41.25-2l8.25-4.76a3.89 3.89 0 0 1 3.49-.15l9.81 5.67c.9.51.78 1.42-.25 2l-8.25 4.76a3.89 3.89 0 0 1-3.53.15zM499.52 420l-9.81-5.66c-.89-.52-.78-1.42.25-2l8.25-4.76a3.89 3.89 0 0 1 3.49-.14l9.81 5.66c.89.52.78 1.42-.25 2l-8.26 4.8a3.89 3.89 0 0 1-3.48.1zM425.79 377.47l-9.79-5.66c-.89-.52-.78-1.42.25-2l8.25-4.76a3.86 3.86 0 0 1 3.49-.14l9.81 5.66c.9.52.78 1.42-.25 2l-8.25 4.77a3.87 3.87 0 0 1-3.51.13zM381.55 351.93l-9.82-5.67c-.89-.51-.78-1.41.25-2l8.25-4.76a3.89 3.89 0 0 1 3.49-.15l9.81 5.67c.9.51.78 1.42-.25 2l-8.28 4.76a3.87 3.87 0 0 1-3.45.15zM455.28 394.5l-9.81-5.67c-.9-.51-.78-1.41.25-2l8.25-4.76a3.87 3.87 0 0 1 3.48-.15l9.82 5.67c.89.52.78 1.42-.25 2l-8.25 4.77a3.89 3.89 0 0 1-3.49.14zM470 403l-9.81-5.66c-.9-.52-.79-1.42.25-2l8.24-4.76a3.89 3.89 0 0 1 3.49-.14l9.81 5.66c.9.52.79 1.42-.25 2l-8.24 4.76a3.86 3.86 0 0 1-3.49.14zM411 369l-9.81-5.67c-.9-.51-.79-1.42.25-2l8.25-4.76a3.87 3.87 0 0 1 3.48-.15L423 362c.89.51.78 1.41-.25 2l-8.25 4.76a3.89 3.89 0 0 1-3.5.24zM440.53 386l-9.81-5.67c-.89-.52-.78-1.42.25-2l8.25-4.77a3.89 3.89 0 0 1 3.49-.14l9.81 5.67c.89.51.78 1.41-.25 2l-8.27 4.75a3.89 3.89 0 0 1-3.47.16zM396.29 360.44l-9.81-5.66c-.89-.52-.78-1.42.25-2L395 348a3.89 3.89 0 0 1 3.49-.14l9.81 5.66c.89.52.78 1.42-.25 2l-8.25 4.76a3.89 3.89 0 0 1-3.51.16zM366.8 343.41l-9.8-5.66c-.9-.52-.79-1.42.25-2l8.24-4.77a3.89 3.89 0 0 1 3.49-.14l9.81 5.66c.9.52.79 1.42-.25 2l-8.24 4.76a3.86 3.86 0 0 1-3.5.15zM497.61 435.71l9.2 5.31a3.86 3.86 0 0 0 3.49-.14l8.62-5c1-.59 1.15-1.49.25-2l-9.2-5.31a3.87 3.87 0 0 0-3.48.14l-8.63 5c-1.03.59-1.14 1.49-.25 2zM482.75 426.91l9.81 5.67a3.89 3.89 0 0 0 3.49-.14l8.24-4.77c1-.59 1.15-1.49.25-2l-9.81-5.67a3.89 3.89 0 0 0-3.49.15L483 424.9c-1 .6-1.15 1.5-.25 2.01zM468 418.4l9.81 5.67a3.89 3.89 0 0 0 3.49-.15l8.25-4.76c1-.6 1.14-1.5.25-2l-9.8-5.68a3.87 3.87 0 0 0-3.48.14l-8.25 4.77c-1.05.61-1.17 1.49-.27 2.01zM298.71 320.66l16.21 9.34a3.89 3.89 0 0 0 3.49-.14l8.25-4.76c1-.6 1.14-1.5.25-2l-16.21-9.36a3.89 3.89 0 0 0-3.49.15l-8.21 4.76c-1.07.59-1.18 1.5-.29 2.01zM284.56 328.83l20 11.56a3.89 3.89 0 0 0 3.49-.14l8.25-4.77c1-.59 1.14-1.49.25-2l-20-11.56a3.87 3.87 0 0 0-3.48.15l-8.25 4.76c-1.04.59-1.16 1.49-.26 2zM269.84 337.33l26.82 15.49a3.89 3.89 0 0 0 3.49-.15l8.25-4.76c1-.6 1.14-1.5.25-2l-26.82-15.49a3.89 3.89 0 0 0-3.49.15l-8.25 4.76c-1.03.58-1.09 1.49-.25 2zM253.35 346.85l8.65 5a3.89 3.89 0 0 0 3.49-.14l10-5.78c1-.6 1.15-1.5.25-2l-8.64-5a3.89 3.89 0 0 0-3.49.14l-10 5.79c-1.04.57-1.15 1.47-.26 1.99zM267.85 355.22l8.65 5a3.89 3.89 0 0 0 3.49-.14l10-5.78c1-.6 1.15-1.5.25-2l-8.65-5a3.87 3.87 0 0 0-3.48.14l-10 5.79c-1.04.57-1.11 1.47-.26 1.99zM282.85 363.88l8.65 5a3.89 3.89 0 0 0 3.49-.14L305 363c1-.6 1.15-1.5.25-2l-8.65-5a3.87 3.87 0 0 0-3.48.14l-10 5.79c-1.05.53-1.12 1.43-.27 1.95zM297.85 372.54l12.33 7.12a3.89 3.89 0 0 0 3.49-.14l10-5.79c1-.59 1.14-1.49.25-2l-12.32-7.13a3.87 3.87 0 0 0-3.48.14l-10 5.79c-1.05.59-1.12 1.47-.27 2.01zM389.79 425.62l12.34 7.12a3.83 3.83 0 0 0 3.48-.14l10-5.78c1-.6 1.14-1.5.25-2l-12.33-7.12a3.89 3.89 0 0 0-3.49.15l-10 5.78c-1.04.58-1.14 1.48-.25 1.99zM408.24 436.27l9.88 5.71a3.87 3.87 0 0 0 3.48-.15l10-5.78c1-.6 1.14-1.5.25-2l-9.88-5.7a3.87 3.87 0 0 0-3.48.15l-10 5.78c-1.03.58-1.14 1.48-.25 1.99zM437.45 453.14l9.88 5.7a3.87 3.87 0 0 0 3.48-.14l10-5.79c1-.59 1.14-1.49.25-2l-9.88-5.7a3.87 3.87 0 0 0-3.48.14l-10 5.78c-1.03.59-1.14 1.49-.25 2.01zM452.1 461.6l9.88 5.7a3.89 3.89 0 0 0 3.49-.14l3.3-1.91c1-.59 1.14-1.5.25-2l-9.88-5.7a3.86 3.86 0 0 0-3.49.14l-3.3 1.9c-1.03.59-1.14 1.49-.25 2.01zM422.8 444.68l9.87 5.7a3.89 3.89 0 0 0 3.49-.14l3.3-1.91c1-.59 1.14-1.5.25-2l-9.88-5.7a3.83 3.83 0 0 0-3.48.14l-3.3 1.91c-1.05.58-1.15 1.48-.25 2zM315.71 382.85l69.24 40a3.87 3.87 0 0 0 3.48-.15l10-5.78c1-.6 1.14-1.5.25-2l-69.24-40a3.84 3.84 0 0 0-3.48.15l-10 5.78c-1.03.58-1.14 1.49-.25 2zM450.21 441.47l27.92 16.12a3.87 3.87 0 0 0 3.48-.15l8.25-4.76c1-.6 1.15-1.5.25-2l-27.91-16.13a3.89 3.89 0 0 0-3.49.14l-8.25 4.77c-1.03.59-1.14 1.54-.25 2.01zM335.27 341.77l9.82 5.67a3.87 3.87 0 0 0 3.48-.15l8.25-4.76c1-.6 1.15-1.5.25-2l-9.81-5.67a3.89 3.89 0 0 0-3.49.15l-8.25 4.76c-1.03.58-1.14 1.49-.25 2zM320.53 333.26l9.81 5.66a3.89 3.89 0 0 0 3.49-.14l8.25-4.76c1-.6 1.14-1.5.25-2l-9.82-5.66a3.87 3.87 0 0 0-3.48.14l-8.25 4.76c-1.03.58-1.15 1.48-.25 2zM394.26 375.83l9.82 5.66a3.83 3.83 0 0 0 3.48-.14l8.25-4.76c1-.6 1.15-1.5.25-2l-9.81-5.66a3.89 3.89 0 0 0-3.49.14l-8.25 4.77c-1.03.57-1.14 1.47-.25 1.99zM438.5 401.37l9.82 5.67a3.87 3.87 0 0 0 3.48-.15l8.25-4.76c1-.6 1.15-1.5.25-2l-9.81-5.67a3.89 3.89 0 0 0-3.49.15l-8.25 4.76c-1.03.63-1.14 1.49-.25 2zM364.77 358.8l9.81 5.67a3.89 3.89 0 0 0 3.49-.15l8.25-4.76c1-.6 1.14-1.5.25-2l-9.82-5.67a3.87 3.87 0 0 0-3.48.14l-8.27 4.76c-1 .59-1.13 1.49-.23 2.01zM350 350.29l9.81 5.66a3.89 3.89 0 0 0 3.49-.14l8.25-4.76c1-.6 1.14-1.5.25-2l-9.8-5.68a3.86 3.86 0 0 0-3.49.14l-8.25 4.76c-1.02.6-1.13 1.5-.26 2.02zM409 384.34l9.81 5.67a3.86 3.86 0 0 0 3.49-.15l8.25-4.76c1-.59 1.14-1.5.25-2l-9.8-5.68a3.89 3.89 0 0 0-3.49.15l-8.25 4.76c-1.03.6-1.14 1.5-.26 2.01zM379.52 367.31l9.81 5.67a3.89 3.89 0 0 0 3.49-.14l8.24-4.77c1-.59 1.15-1.49.25-2l-9.81-5.67a3.89 3.89 0 0 0-3.49.15l-8.24 4.76c-1.04.59-1.15 1.49-.25 2zM423.76 392.86l9.81 5.66a3.89 3.89 0 0 0 3.49-.14l8.25-4.76c1-.6 1.14-1.5.25-2l-9.82-5.66a3.87 3.87 0 0 0-3.48.14l-8.26 4.74c-1 .6-1.14 1.5-.24 2.02zM453.25 409.89l9.81 5.66a3.89 3.89 0 0 0 3.49-.14l8.25-4.77c1-.59 1.14-1.49.25-2l-9.81-5.64a3.86 3.86 0 0 0-3.49.14l-8.25 4.76c-1.03.57-1.14 1.47-.25 1.99zM324.38 351.83l9.81 5.66a3.89 3.89 0 0 0 3.49-.14l8.25-4.77c1-.59 1.14-1.49.25-2l-9.81-5.66a3.86 3.86 0 0 0-3.49.14l-8.25 4.76c-1.03.59-1.14 1.49-.25 2.01zM309.63 343.31l9.82 5.67a3.87 3.87 0 0 0 3.48-.15l8.25-4.76c1-.6 1.15-1.5.25-2l-9.81-5.67a3.86 3.86 0 0 0-3.49.15l-8.25 4.76c-1.03.58-1.14 1.49-.25 2zM492.85 449.09l-20.41-11.78c-.89-.52-.78-1.42.25-2l8.25-4.77a3.89 3.89 0 0 1 3.49-.14l20.4 11.78c.9.51.78 1.42-.25 2l-8.25 4.76a3.87 3.87 0 0 1-3.48.15zM467.38 434.39l-9.81-5.67c-.89-.51-.78-1.41.25-2l8.25-4.76a3.89 3.89 0 0 1 3.49-.15l9.81 5.67c.89.51.78 1.42-.25 2l-8.25 4.76a3.89 3.89 0 0 1-3.49.15zM383.37 385.88l9.81 5.67a3.89 3.89 0 0 0 3.49-.15l8.25-4.76c1-.59 1.14-1.5.25-2l-9.81-5.64a3.89 3.89 0 0 0-3.49.15l-8.25 4.76c-1.03.56-1.14 1.46-.25 1.97zM427.61 411.43l9.81 5.66a3.89 3.89 0 0 0 3.49-.14l8.25-4.77c1-.59 1.14-1.49.25-2l-9.81-5.66a3.86 3.86 0 0 0-3.49.14l-8.25 4.76c-1.03.58-1.14 1.49-.25 2.01zM353.88 368.85l9.81 5.67a3.89 3.89 0 0 0 3.49-.14l8.24-4.77c1-.59 1.15-1.49.25-2l-9.81-5.67a3.89 3.89 0 0 0-3.49.15l-8.24 4.76c-1.04.59-1.13 1.49-.25 2zM339.13 360.34l9.81 5.67a3.89 3.89 0 0 0 3.49-.15l8.25-4.76c1-.6 1.14-1.5.25-2l-9.82-5.66a3.87 3.87 0 0 0-3.48.14l-8.25 4.77c-1.03.57-1.15 1.47-.25 1.99zM398.12 394.4l9.81 5.66a3.89 3.89 0 0 0 3.49-.14l8.25-4.76c1-.6 1.14-1.5.25-2l-9.82-5.66a3.87 3.87 0 0 0-3.48.14l-8.25 4.76c-1.04.6-1.15 1.48-.25 2zM368.62 377.37l9.82 5.66a3.83 3.83 0 0 0 3.48-.14l8.25-4.76c1-.6 1.15-1.5.25-2l-9.81-5.66a3.89 3.89 0 0 0-3.49.14l-8.25 4.76c-1.03.63-1.14 1.48-.25 2zM412.86 402.91l9.82 5.67a3.87 3.87 0 0 0 3.48-.15l8.25-4.76c1-.6 1.15-1.5.25-2l-9.81-5.67a3.86 3.86 0 0 0-3.49.15l-8.25 4.76c-1.03.58-1.11 1.49-.25 2zM442.36 419.94l9.81 5.67a3.89 3.89 0 0 0 3.49-.15l8.25-4.76c1-.6 1.14-1.5.25-2l-9.82-5.7a3.87 3.87 0 0 0-3.48.14l-8.25 4.77c-1.03.61-1.15 1.51-.25 2.03zM317.33 364.75l9.81 5.66a3.86 3.86 0 0 0 3.49-.14l8.25-4.76c1-.6 1.14-1.5.25-2l-9.82-5.66a3.87 3.87 0 0 0-3.48.14l-8.25 4.77c-1.03.57-1.15 1.47-.25 1.99zM302.58 356.23l9.81 5.67a3.89 3.89 0 0 0 3.49-.14l8.25-4.77c1-.59 1.14-1.49.25-2l-9.81-5.67a3.89 3.89 0 0 0-3.49.15l-8.25 4.76c-1.03.59-1.14 1.49-.25 2zM376.32 398.81l9.81 5.66a3.89 3.89 0 0 0 3.49-.14l8.24-4.77c1-.59 1.15-1.49.26-2l-9.82-5.66a3.86 3.86 0 0 0-3.49.14l-8.24 4.76c-1.04.59-1.15 1.49-.25 2.01zM420.56 424.35l9.81 5.66a3.86 3.86 0 0 0 3.49-.14l8.25-4.76c1-.6 1.14-1.5.25-2l-9.82-5.66a3.87 3.87 0 0 0-3.48.14l-8.25 4.77c-1.03.57-1.15 1.47-.25 1.99zM346.82 381.78l9.81 5.66a3.89 3.89 0 0 0 3.49-.14l8.25-4.76c1-.6 1.15-1.5.25-2l-9.81-5.66a3.89 3.89 0 0 0-3.49.14l-8.25 4.76c-1.07.58-1.14 1.48-.25 2zM332.07 373.26l9.82 5.67a3.89 3.89 0 0 0 3.49-.15l8.24-4.76c1-.59 1.15-1.5.25-2l-9.81-5.67a3.89 3.89 0 0 0-3.49.15l-8.24 4.76c-1.04.59-1.15 1.49-.26 2zM391.06 407.32l9.82 5.67a3.87 3.87 0 0 0 3.48-.15l8.25-4.76c1-.6 1.15-1.5.25-2l-9.81-5.67a3.89 3.89 0 0 0-3.49.14l-8.25 4.77c-1.03.58-1.14 1.48-.25 2zM361.57 390.29l9.81 5.67a3.89 3.89 0 0 0 3.49-.15l8.25-4.76c1-.6 1.14-1.5.25-2l-9.81-5.67a3.89 3.89 0 0 0-3.49.15l-8.25 4.76c-1.03.58-1.14 1.49-.25 2zM405.81 415.83l9.81 5.67a3.89 3.89 0 0 0 3.49-.14l8.25-4.77c1-.59 1.14-1.49.25-2l-9.81-5.67a3.89 3.89 0 0 0-3.49.15l-8.25 4.76c-1.06.59-1.14 1.49-.25 2zM435.3 432.86l9.82 5.67a3.89 3.89 0 0 0 3.49-.15l8.24-4.76c1-.59 1.15-1.5.25-2l-9.81-5.67a3.89 3.89 0 0 0-3.49.15l-8.24 4.76c-1.04.59-1.15 1.49-.26 2z"/><path class="cls-24" d="M549.78 309.46l-115.26-66.54a13.14 13.14 0 0 1-6.52-11.39V117.58a5.08 5.08 0 0 1 7.61-4.4l115.26 66.54a13.15 13.15 0 0 1 6.58 11.39v114a5.08 5.08 0 0 1-7.67 4.35z"/><path class="cls-25" d="M539.18 315.08l-115.26-66.54a13.17 13.17 0 0 1-6.57-11.39V123.2a5.08 5.08 0 0 1 7.62-4.4l115.25 66.55a13.15 13.15 0 0 1 6.58 11.39v114a5.07 5.07 0 0 1-7.62 4.34z"/><path class="cls-24" d="M399.45 284.36l-36.85-21.27a13.15 13.15 0 0 1-6.6-11.39v-40.29a5.08 5.08 0 0 1 7.62-4.4l36.85 21.27a13.15 13.15 0 0 1 6.58 11.39V280a5.08 5.08 0 0 1-7.6 4.36z"/><path class="cls-25" d="M390.84 289L354 267.72a13.15 13.15 0 0 1-6.58-11.39V216a5.08 5.08 0 0 1 7.62-4.4l36.85 21.27a13.15 13.15 0 0 1 6.58 11.39v40.3a5.08 5.08 0 0 1-7.63 4.44z"/><path d="M346.38 495.68l-45-25.93c-1.38-.79-1.2-2.18.38-3.1a6 6 0 0 1 5.37-.22l45 25.93c1.37.79 1.2 2.18-.39 3.1a6 6 0 0 1-5.36.22z" fill="url(#linear-gradient-9)" opacity=".5"/><path d="M314 489.55l-23.73-13.66c-1.37-.79-1.2-2.18.39-3.1a6 6 0 0 1 5.36-.22l23.73 13.66c1.38.8 1.2 2.18-.38 3.1a5.94 5.94 0 0 1-5.37.22z" fill="url(#linear-gradient-10)" opacity=".5"/><path class="cls-19" d="M502.77 221.11a3.92 3.92 0 0 0-1.46-1.66l-46.66-26.94-2-10.17a4.13 4.13 0 0 0-1.78-2.61l-9.51-5.49c-1-.59-1.84-.12-1.84 1a4 4 0 0 0 1.84 3.16l8.1 4.68 2 10.17 7.19 35.86a4.11 4.11 0 0 0 1.78 2.6l33.71 19.46c.83.48 1.56.26 1.77-.55l7.19-27.56a3.11 3.11 0 0 0-.33-1.95zm-34.46 11l-6.48-3.74-1.44-7.19 7.92 4.57zm0-10.57l-8.87-5.13-1.44-7.19 10.31 6zm0-10.57L457 204.46l-1.44-7.19 12.71 7.34zm14.25 29.36L472 234.22v-6.35l10.58 6.1zm0-10.57l-10.56-6.1v-6.37l10.58 6.11zm0-10.57L472 213.08v-6.35l10.58 6.1zm10.15 27l-6.48-3.74v-6.36l7.92 4.57zm2.39-9.19l-8.87-5.13v-6.36l10.32 6zm2.4-9.19l-11.27-6.51V215l12.71 7.34zM465.28 236.28c-3.69-2.13-6.7-.42-6.7 3.82a14.8 14.8 0 0 0 6.7 11.56c3.7 2.13 6.7.42 6.7-3.82a14.77 14.77 0 0 0-6.7-11.56zm0 11.17a6.7 6.7 0 0 1-3-5.23c0-1.92 1.36-2.7 3-1.73a6.68 6.68 0 0 1 3 5.23c.03 1.92-1.28 2.69-3 1.73zM489.26 250.12c-3.69-2.13-6.7-.42-6.7 3.82a14.8 14.8 0 0 0 6.7 11.56c3.7 2.14 6.7.42 6.7-3.82a14.81 14.81 0 0 0-6.7-11.56zm0 11.17a6.68 6.68 0 0 1-3-5.23c0-1.92 1.36-2.69 3-1.73a6.7 6.7 0 0 1 3 5.23c.03 1.92-1.33 2.7-3 1.73z"/><path d="M383.08 270.75L358.37 256a5.25 5.25 0 0 1-2.56-4.41v-19.74a2.87 2.87 0 0 1 4.51-2.25L385 244.36a5.25 5.25 0 0 1 2.56 4.41v19.72a2.87 2.87 0 0 1-4.48 2.26z" stroke-width="4" stroke-miterlimit="10" fill="none" stroke="#3de6fd"/><path d="M381.48 248.75l-8 3.9c-1 .48-2.58-.51-3.56-2.21l-8-13.82" stroke-width="4" stroke-linecap="round" stroke-linejoin="round" fill="none" stroke="#3de6fd"/><ellipse class="cls-31" cx="525.74" cy="278.36" rx="11" ry="19.05" transform="rotate(-30.31 525.74005128 278.36491106)" opacity=".5"/><ellipse class="cls-31" cx="521.81" cy="280.71" rx="11" ry="19.05" transform="rotate(-30.31 521.83409378 280.715091)"/><path class="cls-25" d="M519.31 286.79l-7.45-11.65 2.07-1.56 5.38 8.42 10.39-4.26 2.06 3.94-12.45 5.11z"/><path d="M466.85 164.09L430.25 143a5.73 5.73 0 0 1-2.39-4.57c0-1.76 1.07-2.57 2.39-1.8l36.6 21.13a5.71 5.71 0 0 1 2.39 4.57c0 1.72-1.07 2.53-2.39 1.76z" fill="url(#linear-gradient-11)" opacity=".5"/><path d="M453.86 168.16l-23.61-13.76a5.73 5.73 0 0 1-2.39-4.57c0-1.76 1.07-2.57 2.39-1.81l23.61 13.76a5.73 5.73 0 0 1 2.39 4.57c0 1.76-1.07 2.57-2.39 1.81z" fill="url(#linear-gradient-12)" opacity=".5"/><path class="cls-34" d="M315.56 91.29L298 81.14a5.9 5.9 0 0 1-3-5.1V55.92a2.66 2.66 0 0 1 4-2.3l17.6 10.14a5.91 5.91 0 0 1 2.94 5.11V89a2.66 2.66 0 0 1-3.98 2.29z"/><path class="cls-35" d="M319.12 89.56l-17.58-10.15a5.9 5.9 0 0 1-3-5.1V54.19a2.66 2.66 0 0 1 4-2.3L320.16 62a5.91 5.91 0 0 1 2.94 5.11v20.15a2.66 2.66 0 0 1-3.98 2.3z"/><path class="cls-34" d="M476.65 111.35l-17.58-10.15a5.89 5.89 0 0 1-2.94-5.1V76a2.65 2.65 0 0 1 4-2.3l17.58 10.14a5.92 5.92 0 0 1 2.95 5.11v20.12a2.66 2.66 0 0 1-4.01 2.28z"/><path class="cls-35" d="M480.21 109.62l-17.58-10.15a5.89 5.89 0 0 1-2.94-5.1V74.25a2.65 2.65 0 0 1 4-2.3l17.58 10.14a5.92 5.92 0 0 1 2.95 5.11v20.12a2.66 2.66 0 0 1-4.01 2.3z"/></g></g></svg>
