
<svg width="72px" height="72px" viewBox="0 0 72 72" version="1.1" xmlns="http://www.w3.org/2000/svg" xmlns:xlink="http://www.w3.org/1999/xlink">
  <!-- Generator: Sketch 49.2 (51160) - http://www.bohemiancoding.com/sketch -->
  <desc>Created with Sketch for Selly LLC.</desc>
  <g id="Page-1" stroke="none" stroke-width="1" fill="none" fill-rule="evenodd">
    <g id="Selly.gg-E-comerce-Copy" transform="translate(-924.000000, -1819.000000)">
      <g id="p3" transform="translate(0.000000, 1719.000000)">
        <g id="High-Conversion" transform="translate(784.000000, 100.000000)">
          <g id="Ico_Conversion-Rate" transform="translate(140.000000, 0.000000)">
            <circle id="Oval" fill="#EDF8FF" cx="36" cy="36" r="36"></circle>
            <g id="Group-16" transform="translate(15.000000, 16.000000)" fill-rule="nonzero">
              <path d="M7.26565821,6.43723108 C11.0463815,2.46204275 16.3056278,0.134277344 22.1115723,0.134277344 C30.9093651,0.134277344 38.3604316,5.34918254 41.4098228,13.5682217 C41.9861533,15.1216081 41.194093,16.8480847 39.6407066,17.4244151 C38.0873202,18.0007456 36.3608436,17.2086853 35.7845131,15.6552989 C33.6055727,9.78238987 28.3937458,6.13427734 22.1115723,6.13427734 C17.9366037,6.13427734 14.1911331,7.80371594 11.5102362,10.681809 L15.7626828,14.9342557 C17.0226125,16.1941854 16.1302789,18.3484692 14.3484692,18.3484692 L2.34846923,18.3484692 C1.24389973,18.3484692 0.348469228,17.4530387 0.348469228,16.3484692 L0.348469228,4.34846923 C0.348469228,2.56665953 2.50275307,1.67432594 3.76268279,2.93425567 L7.26565821,6.43723108 Z" id="Combined-Shape" fill="#3E9CFA"></path>
              <path d="M7.26565821,28.4372311 C11.0463815,24.4620427 16.3056278,22.1342773 22.1115723,22.1342773 C30.9093651,22.1342773 38.3604316,27.3491825 41.4098228,35.5682217 C41.9861533,37.1216081 41.194093,38.8480847 39.6407066,39.4244151 C38.0873202,40.0007456 36.3608436,39.2086853 35.7845131,37.6552989 C33.6055727,31.7823899 28.3937458,28.1342773 22.1115723,28.1342773 C17.9366037,28.1342773 14.1911331,29.8037159 11.5102362,32.681809 L15.7626828,36.9342557 C17.0226125,38.1941854 16.1302789,40.3484692 14.3484692,40.3484692 L2.34846923,40.3484692 C1.24389973,40.3484692 0.348469228,39.4530387 0.348469228,38.3484692 L0.348469228,26.3484692 C0.348469228,24.5666595 2.50275307,23.6743259 3.76268279,24.9342557 L7.26565821,28.4372311 Z" id="Combined-Shape" fill="#82C8FA" transform="translate(20.973226, 31.241373) scale(-1, -1) translate(-20.973226, -31.241373) "></path>
            </g>
          </g>
        </g>
      </g>
    </g>
  </g>
</svg>