
<svg width="72px" height="72px" viewBox="0 0 72 72" version="1.1" xmlns="http://www.w3.org/2000/svg" xmlns:xlink="http://www.w3.org/1999/xlink">
  <!-- Generator: Sketch 49.2 (51160) - http://www.bohemiancoding.com/sketch -->
  <desc>Created with Sketch for Selly LLC.</desc>
  <g id="Page-1" stroke="none" stroke-width="1" fill="none" fill-rule="evenodd">
    <g id="Selly.gg-E-comerce-Copy" transform="translate(-1314.000000, -2679.000000)">
      <g id="p5" transform="translate(0.000000, 2579.000000)">
        <g id="Group-24" transform="translate(395.000000, 100.000000)">
          <g id="iDeveloper-Friemdly" transform="translate(779.000000, 0.000000)">
            <g id="Ico_ideveloper-Friendly" transform="translate(140.000000, 0.000000)">
              <circle id="Oval" fill="#EDF8FF" cx="36" cy="36" r="36"></circle>
              <g id="Group" transform="translate(13.000000, 17.000000)">
                <rect id="Rectangle-2" fill="#3E9CFA" x="0" y="0" width="46" height="38" rx="3"></rect>
                <path d="M3,9 L43,9 L43,34 C43,34.5522847 42.5522847,35 42,35 L4,35 C3.44771525,35 3,34.5522847 3,34 L3,9 Z" id="Rectangle" fill="#EDF8FF"></path>
                <g id="Group-6" transform="translate(13.000000, 12.000000)">
                  <path d="M2.01471863,4.13603897 L4.13603897,2.01471863 C4.47042072,1.68033687 4.99331819,1.62589176 5.38941353,1.88421481 L6.83659691,2.82803005 C7.10642738,2.6989794 7.38310268,2.58422647 7.6655877,2.48433646 L8.02145022,0.793989519 C8.11886994,0.331245839 8.52711279,-5.31103858e-16 9,2.22044605e-16 L12,2.22044605e-16 C12.4728872,1.35176633e-16 12.8811301,0.331245839 12.9785498,0.793989519 L13.3344123,2.48433646 C13.6168973,2.58422647 13.8935726,2.6989794 14.1634031,2.82803005 L15.6105865,1.88421481 C16.0066818,1.62589176 16.5295793,1.68033687 16.863961,2.01471863 L18.9852814,4.13603897 C19.3196631,4.47042072 19.3741082,4.99331819 19.1157852,5.38941353 L18.1719699,6.83659691 C18.3010206,7.10642738 18.4157735,7.38310268 18.5156635,7.6655877 L20.2060105,8.02145022 C20.6687542,8.11886994 21,8.52711279 21,9 L21,12 C21,12.4728872 20.6687542,12.8811301 20.2060105,12.9785498 L18.5156635,13.3344123 C18.4157735,13.6168973 18.3010206,13.8935726 18.1719699,14.1634031 L19.1157852,15.6105865 C19.3741082,16.0066818 19.3196631,16.5295793 18.9852814,16.863961 L16.863961,18.9852814 C16.5295793,19.3196631 16.0066818,19.3741082 15.6105865,19.1157852 L14.1634031,18.1719699 C13.8935726,18.3010206 13.6168973,18.4157735 13.3344123,18.5156635 L12.9785498,20.2060105 C12.8811301,20.6687542 12.4728872,21 12,21 L9,21 C8.52711279,21 8.11886994,20.6687542 8.02145022,20.2060105 L7.6655877,18.5156635 C7.38310268,18.4157735 7.10642738,18.3010206 6.83659691,18.1719699 L5.38941353,19.1157852 C4.99331819,19.3741082 4.47042072,19.3196631 4.13603897,18.9852814 L2.01471863,16.863961 C1.68033687,16.5295793 1.62589176,16.0066818 1.88421481,15.6105865 L2.82803005,14.1634031 C2.6989794,13.8935726 2.58422647,13.6168973 2.48433646,13.3344123 L0.793989519,12.9785498 C0.331245839,12.8811301 -1.15970639e-16,12.4728872 6.66133815e-16,12 L4.4408921e-15,9 C5.22299655e-15,8.52711279 0.331245839,8.11886994 0.793989519,8.02145022 L2.48433646,7.6655877 C2.58422647,7.38310268 2.6989794,7.10642738 2.82803005,6.83659691 L1.88421481,5.38941353 C1.62589176,4.99331819 1.68033687,4.47042072 2.01471863,4.13603897 Z" id="Combined-Shape" fill="#82C8FA" fill-rule="nonzero"></path>
                  <circle id="Oval-27" fill="#EDF8FF" cx="10.5" cy="10.5" r="4.5"></circle>
                </g>
                <circle id="Oval-3" fill="#EDF8FF" cx="5" cy="5" r="2"></circle>
              </g>
            </g>
          </g>
        </g>
      </g>
    </g>
  </g>
</svg>