
<svg width="72px" height="72px" viewBox="0 0 72 72" version="1.1" xmlns="http://www.w3.org/2000/svg" xmlns:xlink="http://www.w3.org/1999/xlink">
  <!-- Generator: Sketch 49.2 (51160) - http://www.bohemiancoding.com/sketch -->
  <desc>Created with Sketch for Selly LLC.</desc>
  <g id="Page-1" stroke="none" stroke-width="1" fill="none" fill-rule="evenodd">
    <g id="Selly.gg-E-comerce-Copy" transform="translate(-534.000000, -953.000000)">
      <g id="p1" transform="translate(0.000000, 853.000000)">
        <g id="Group-40">
          <g id="Group-39" transform="translate(394.000000, 100.000000)">
            <g id="Plethora-Of">
              <g id="Ico_Plethora-Of" transform="translate(140.000000, 0.000000)">
                <circle id="Oval" fill="#EDF8FF" cx="36" cy="36" r="36"></circle>
                <g id="Group-2" transform="translate(11.000000, 19.000000)">
                  <path d="M3,0 L47,0 C48.6568542,-3.04359188e-16 50,1.34314575 50,3 L50,35 C50,36.6568542 48.6568542,38 47,38 L3,38 C1.34314575,38 2.02906125e-16,36.6568542 0,35 L0,3 C-2.02906125e-16,1.34314575 1.34314575,3.04359188e-16 3,0 Z" id="Combined-Shape" fill="#3E9CFA" fill-rule="nonzero"></path>
                  <rect id="Rectangle-6" fill="#EDF8FF" x="0" y="6" width="50" height="4"></rect>
                  <path d="M29.7619048,28.5 C31.7343503,28.5 33.3333333,26.9050144 33.3333333,24.9375 C33.3333333,22.9699856 31.7343503,21.375 29.7619048,21.375 C27.7894592,21.375 26.1904762,22.9699856 26.1904762,24.9375 C26.1904762,26.9050144 27.7894592,28.5 29.7619048,28.5 Z" id="Oval-9" fill="#15DC81"></path>
                </g>
                <circle id="Oval-5" fill="#82C8FA" cx="36" cy="43" r="10"></circle>
                <path d="M38.6441388,39.4138048 C39.1059625,38.9006673 39.8963248,38.8590693 40.4094624,39.3208931 C40.9225999,39.7827168 40.9641979,40.5730791 40.5023741,41.0862167 L36.0023741,46.0862167 C35.5431819,46.5964302 34.7584716,46.6409047 34.2445712,46.1858424 L31.421329,43.6858424 C30.9044835,43.2281722 30.8565124,42.4381711 31.3141826,41.9213255 C31.7718528,41.40448 32.5618539,41.3565089 33.0786995,41.8141791 L34.9736275,43.4921507 L38.6441388,39.4138048 Z" id="Path-310" fill="#FFFFFF" fill-rule="nonzero"></path>
              </g>
            </g>
          </g>
        </g>
      </g>
    </g>
  </g>
</svg>