
<svg width="72px" height="72px" viewBox="0 0 72 72" version="1.1" xmlns="http://www.w3.org/2000/svg" xmlns:xlink="http://www.w3.org/1999/xlink">
  <!-- Generator: Sketch 49.2 (51160) - http://www.bohemiancoding.com/sketch -->
  <desc>Created with Sketch.</desc>
  <defs></defs>
  <g id="Page-1" stroke="none" stroke-width="1" fill="none" fill-rule="evenodd">
    <g id="Selly.gg-E-comerce-Copy" transform="translate(-1313.000000, -953.000000)">
      <g id="p1" transform="translate(0.000000, 853.000000)">
        <g id="Group-40">
          <g id="Group-39" transform="translate(394.000000, 100.000000)">
            <g id="International-Support" transform="translate(779.000000, 0.000000)">
              <g id="Ico_International-Support" transform="translate(140.000000, 0.000000)">
                <circle id="Oval" fill="#EDF8FF" cx="36" cy="36" r="36"></circle>
                <g id="Group-45" transform="translate(12.000000, 11.000000)">
                  <path d="M22.8304112,35.2956118 C20.3448602,35.3886088 17.7100457,35.6571997 15.1728413,36.0843533 C14.3242807,33.1472314 13.7942924,29.7559357 13.7020096,26.1161255 L22.8304112,26.1161255 L22.8304112,35.2956118 Z M25.1161255,35.2604209 L25.1161255,26.1161255 L34.2445271,26.1161255 C34.1540291,29.6855371 33.6425935,33.0159543 32.8225738,35.9134219 C30.3061949,35.5048258 27.6784566,35.2802524 25.1161255,35.2604209 Z M22.8304112,13.9243272 L22.8304112,23.8304112 L13.7020096,23.8304112 C13.8012613,19.9157356 14.4068224,16.2885256 15.3704809,13.2046394 C17.8307744,13.6110156 20.3844983,13.8566431 22.8304112,13.9243299 Z M25.1161254,13.9348264 C27.5985598,13.8879268 30.1465668,13.6521136 32.5889327,13.2459491 C33.5451077,16.3208977 34.1457182,19.9332013 34.2445271,23.8304112 L25.1161255,23.8304112 L25.1161255,13.9348264 Z M22.8304112,48.9465367 C16.2432784,48.637727 10.3505777,45.6734338 6.19866446,41.1000123 C8.09766124,40.1060494 10.7252792,39.2934482 13.6125282,38.6972817 C15.6470002,44.3496297 18.9341716,48.2398242 22.8304112,48.8800525 L22.8304112,48.9465367 Z M25.1161255,48.9465367 L25.1161255,48.8800525 C29.0515668,48.2333826 32.365622,44.2710189 34.3950365,38.526136 C37.2334171,39.11521 39.8246107,39.954064 41.8376913,41.0005211 C37.6811667,45.6304132 31.7509031,48.6354934 25.1161255,48.9465367 Z M22.8304112,46.5468155 C20.0845398,45.8691571 17.5855993,42.7889754 15.8969091,38.2787271 C18.1973908,37.9080127 20.5797461,37.6707738 22.8304112,37.5829815 L22.8304112,46.5468155 Z M25.1161255,46.5468155 L25.1161255,37.5462083 C27.4409631,37.5651102 29.8240956,37.7609582 32.1107019,38.11402 C30.421507,42.7139196 27.8952941,45.8609396 25.1161255,46.5468155 Z M22.8304112,1 L22.8304112,1.06648413 C19.0844912,1.68201202 15.9015495,5.30157165 13.853559,10.6029947 C11.1234525,10.0434768 8.61466997,9.274924 6.68139429,8.33017956 C10.8012021,4.05079188 16.4945779,1.29702853 22.8304112,1 Z M25.1161255,1 C31.437851,1.29636715 37.1199769,4.03854065 41.2375987,8.30161599 C39.2908964,9.27934667 36.8126629,10.0699406 34.1063422,10.6376558 C32.0588485,5.31735166 28.8702035,1.68335256 25.1161255,1.06648413 L25.1161255,1 Z M22.8304112,3.39972117 L22.8304112,11.6376921 C20.6407284,11.57429 18.3577073,11.3620801 16.1503038,11.0167331 C17.8305077,6.86215694 20.2187701,4.04425263 22.8304112,3.39972117 Z M25.1161255,3.39972117 C27.7362315,4.04634171 30.1315084,6.88044675 31.8125483,11.0571731 C29.6200817,11.401777 27.3398646,11.6046093 25.1161254,11.6486794 L25.1161255,3.39972117 Z M5.32907052e-15,26.1161255 L11.4154656,26.1161255 C11.5051049,29.8635322 12.033633,33.3963713 12.9138136,36.512965 C9.70520511,37.1937585 6.79008901,38.1364291 4.71892792,39.3029972 C1.95046829,35.5891674 0.231173569,31.0472247 3.84761667e-15,26.1161255 Z M5.09661757e-15,23.8304112 C0.242463965,18.6584796 2.1219568,13.9146453 5.13201484,10.1053719 C7.2498976,11.2280417 10.0494017,12.1312963 13.1057451,12.7788463 C12.1105619,16.0516871 11.5114419,19.8180582 11.4154759,23.8304098 L5.10702591e-15,23.8304112 Z M47.9465367,26.1161255 C47.7175958,30.9996 46.0291396,35.5013987 43.3075284,39.1951611 C41.0966189,37.9749777 38.227375,37.0071821 35.0820392,36.3365778 C35.9326402,33.2633318 36.4431184,29.7930126 36.5310608,26.1161255 L47.9465367,26.1161255 Z M47.9465367,23.8304112 L36.5310608,23.8304112 C36.4354372,19.8323702 35.8402423,16.078558 34.8514252,12.8138852 C37.8800492,12.157594 40.6460451,11.230159 42.7871959,10.0708554 C45.8132028,13.8859714 47.7033398,18.6428467 47.9465367,23.8304112 Z" id="Combined-Shape" fill="#3E9CFA" fill-rule="nonzero"></path>
                  <circle id="Oval-5" fill="#82C8FA" cx="40" cy="10" r="10"></circle>
                  <path d="M42.6441388,6.41380484 C43.1059625,5.90066731 43.8963248,5.85906929 44.4094624,6.32089307 C44.9225999,6.78271684 44.9641979,7.57307914 44.5023741,8.08621666 L40.0023741,13.0862167 C39.5431819,13.5964302 38.7584716,13.6409047 38.2445712,13.1858424 L35.421329,10.6858424 C34.9044835,10.2281722 34.8565124,9.43817107 35.3141826,8.92132554 C35.7718528,8.40448001 36.5618539,8.35650893 37.0786995,8.81417913 L38.9736275,10.4921507 L42.6441388,6.41380484 Z" id="Path-310" fill="#EDF8FF" fill-rule="nonzero"></path>
                </g>
              </g>
            </g>
          </g>
        </g>
      </g>
    </g>
  </g>
</svg>