
<svg width="72px" height="72px" viewBox="0 0 72 72" version="1.1" xmlns="http://www.w3.org/2000/svg" xmlns:xlink="http://www.w3.org/1999/xlink">
  <!-- Generator: Sketch 49.2 (51160) - http://www.bohemiancoding.com/sketch -->
  <desc>Created with Sketch for Selly LLC.</desc>
  <g id="Page-1" stroke="none" stroke-width="1" fill="none" fill-rule="evenodd">
    <g id="Selly.gg-E-comerce-Copy" transform="translate(-535.000000, -2679.000000)">
      <g id="p5" transform="translate(0.000000, 2579.000000)">
        <g id="Group-24" transform="translate(395.000000, 100.000000)">
          <g id="Queries">
            <g id="Ico_Queries" transform="translate(140.000000, 0.000000)">
              <circle id="Oval" fill="#EDF8FF" cx="36" cy="36" r="36"></circle>
              <path d="M60,35.8809524 C60,48.3206186 52.343774,56.6866351 37.6112242,60.6805714 C37.2163332,60.7876248 36.7995353,60.7890224 36.4039111,60.6846199 C21.6618846,56.7943 14,48.4221004 14,35.8809524 L14,20.6130952 C14,19.660099 14.6073771,18.8093318 15.5188177,18.4856519 L36.2188177,11.1344614 C36.7236523,10.9551795 37.2763477,10.9551795 37.7811823,11.1344614 L58.4811823,18.4856519 C59.3926229,18.8093318 60,19.660099 60,20.6130952 L60,35.8809524 Z" id="Path" fill="#3E9CFA"></path>
              <g id="Group-18" transform="translate(30.000000, 23.000000)" fill="#EDF8FF">
                <path d="M8.75,16.666661 C8.75000306,17.6528838 7.96650386,18.4523778 7.00000554,18.452381 C6.03350723,18.4523841 5.25000306,17.6528951 5.25,16.6666723 L5.24999404,14.7471175 C5.24999404,12.5233995 6.35605173,10.4516767 8.18705146,9.24580513 C9.42296427,8.43184974 9.91666667,7.72887856 9.91666667,7.14285714 C9.91666667,5.49915253 8.61083052,4.16666667 7,4.16666667 C5.38916948,4.16666667 4.08333333,5.49915253 4.08333333,7.14285714 C4.08333333,8.12907991 3.29983165,8.92857143 2.33333333,8.92857143 C1.36683502,8.92857143 0.583333333,8.12907991 0.583333333,7.14285714 C0.583333333,3.526707 3.45617286,0.595238095 7,0.595238095 C10.5438271,0.595238095 13.4166667,3.526707 13.4166667,7.14285714 C13.4166667,9.13905691 12.2232823,10.8382887 10.0850216,12.2465182 C9.2527481,12.7946422 8.74999404,13.7363354 8.74999404,14.7471118 L8.75,16.666661 Z" id="Oval-14" fill-rule="nonzero"></path>
                <ellipse id="Oval-15" cx="7" cy="22.6190476" rx="2.33333333" ry="2.38095238"></ellipse>
              </g>
            </g>
          </g>
        </g>
      </g>
    </g>
  </g>
</svg>