<svg width="111px" height="111px" viewBox="0 0 111 111" xmlns="http://www.w3.org/2000/svg" xmlns:xlink="http://www.w3.org/1999/xlink"><defs><linearGradient x1="8.78698097%" y1="7.05226284%" x2="88.0447336%" y2="90.3014508%" id="a"><stop stop-color="#285DE4" offset="0%"/><stop stop-color="#00D5FF" offset="100%"/></linearGradient><linearGradient x1="-4.97137814%" y1="-13.0455326%" x2="93.8325419%" y2="80.7712861%" id="c"><stop stop-color="#4A79F1" offset="0%"/><stop stop-color="#77EDFF" offset="100%"/></linearGradient><path d="M5 0h46.1a5 5 0 0 1 5 5v34a5 5 0 0 1-5 5H5a5 5 0 0 1-5-5V5a5 5 0 0 1 5-5z" id="b"/><linearGradient x1="-14.5153346%" y1="48.0928455%" x2="102.342625%" y2="50.5055814%" id="e"><stop stop-color="#635EF8" offset="0%"/><stop stop-color="#3AA3FF" offset="100%"/></linearGradient></defs><g transform="translate(.5 .5)" fill="none" fill-rule="evenodd"><circle fill="url(#a)" opacity="0.149999991" cx="55" cy="55" r="55"/><circle stroke="#5699F4" stroke-width="1.5" opacity="0.600000024" cx="32" cy="22" r="2.5"/><circle stroke="#5699F4" stroke-width="1.5" opacity="0.600000024" cx="56" cy="92" r="2.5"/><circle stroke="#5699F4" stroke-width="1.5" opacity="0.600000024" cx="96.5" cy="57.5" r="2"/><g transform="translate(27.4 33.4)"><mask id="d" fill="#fff"><use xlink:href="#b"/></mask><use fill="url(#c)" xlink:href="#b"/><path d="M8 5.1h40.4a3 3 0 0 1 3 3v26a3 3 0 0 1-3 3H8.1a3 3 0 0 1-3-3v-26a3 3 0 0 1 3-3z" fill="#3A61CD" mask="url(#d)"/><g stroke="#FFF" stroke-width="1.5" mask="url(#d)" stroke-linecap="round" stroke-linejoin="round"><path d="M12.2 15.5h9.6M12.2 27.5H19M12.2 21.5H24"/></g><circle fill="#00084F" opacity="0.200000003" mask="url(#d)" cx="47.0970286" cy="14.1489766" r="20.012613"/></g><g transform="translate(55 24.5)"><circle fill="#26DBF8" cx="17.9440615" cy="17.9440615" r="17.9440615"/><g stroke="#FFF" stroke-linecap="round" stroke-linejoin="round" stroke-width="2"><path d="M17.8 19l-8.4-4 8.4-4 8.3 4z"/><path d="M21 18l5.1 2.5-8.3 4.1-8.4-4 5.1-2.5"/></g></g><path d="M0 50h70v2a5 5 0 0 1-5 5H5a5 5 0 0 1-5-5v-2zm28 0c0 1.1.9 2 2 2h10a2 2 0 0 0 2-2H28z" fill="url(#e)" transform="translate(20 24.5)"/></g></svg>
