<svg width="111px" height="111px" viewBox="0 0 111 111" xmlns="http://www.w3.org/2000/svg" xmlns:xlink="http://www.w3.org/1999/xlink"><defs><linearGradient x1="8.78698097%" y1="7.05226284%" x2="88.0447336%" y2="90.3014508%" id="a"><stop stop-color="#285DE4" offset="0%"/><stop stop-color="#00D5FF" offset="100%"/></linearGradient><linearGradient x1="0%" y1="18.8365651%" y2="84.9334015%" id="c"><stop stop-color="#4A79F1" offset="0%"/><stop stop-color="#3DE6FF" offset="100%"/></linearGradient><path id="b" d="M0 0h49.6v39.2H0z"/><linearGradient x1="5.98912201%" y1="32.4103334%" x2="65.7760752%" y2="59.6100549%" id="e"><stop stop-color="#9CC5FF" offset="0%"/><stop stop-color="#82EAFF" offset="100%"/></linearGradient><linearGradient x1="-14.5153346%" y1="48.0539825%" x2="94.1884953%" y2="50.5158838%" id="f"><stop stop-color="#5751EB" offset="0%"/><stop stop-color="#3AA3FF" offset="100%"/></linearGradient></defs><g transform="translate(.5 .5)" fill="none" fill-rule="evenodd"><circle fill="url(#a)" opacity="0.149999991" cx="55" cy="55" r="55"/><circle stroke="#5699F4" stroke-width="1.5" opacity="0.600000024" cx="14" cy="69" r="2.5"/><circle stroke="#5699F4" stroke-width="1.5" opacity="0.600000024" cx="50" cy="17" r="2.5"/><circle stroke="#5699F4" stroke-width="1.5" opacity="0.600000024" cx="95.5" cy="62.5" r="2"/><g transform="translate(28.6 41.8)"><mask id="d" fill="#fff"><use xlink:href="#b"/></mask><use fill="url(#c)" xlink:href="#b"/><path d="M4-8.3h41.7c1.6 0 3 1 3.6 2.5a99.7 99.7 0 0 1 5.5 14.5c.6 3.1-1.7 9.1-7.1 9.1a9.6 9.6 0 0 1-8.5-4.6c-1.2 3.1-3.6 4.6-7.2 4.6s-6-1.5-7.2-4.6c-1.2 3.1-3.6 4.6-7.2 4.6s-6-1.5-7.1-4.6c-2 3.1-4.9 4.6-8.5 4.6-5.5 0-7.2-6-6.5-9.1.4-1.9 2-6.7 4.8-14.3a4 4 0 0 1 3.8-2.7z" fill="#00084F" opacity="0.149999991" mask="url(#d)"/><path d="M15 19.2c4 0 7.2 3.2 7.2 7.2v12.4H7.8V26.4c0-4 3.2-7.2 7.2-7.2z" fill="#3954D7" mask="url(#d)"/><path d="M17.7 31.4a1.4 1.4 0 1 0 0-2.9 1.4 1.4 0 0 0 0 2.9z" fill="#FFF" mask="url(#d)"/><path d="M30.7 21.5h9a2 2 0 0 1 2 2v7.7a2 2 0 0 1-2 2h-9a2 2 0 0 1-2-2v-7.7c0-1.2 1-2 2-2z" fill="#3954D7" mask="url(#d)"/><circle fill="#00084F" opacity="0.200000003" mask="url(#d)" cx="44.2975488" cy="8.31454991" r="20.012613"/></g><path d="M8.7 0h41.6c1.6 0 3 1 3.7 2.4A99.7 99.7 0 0 1 59.5 17c.5 3-1.8 9.1-7.2 9.1-3.6 0-6.4-2.2-8.5-6.5-1.2 4.3-3.6 6.5-7.2 6.5s-6-2.2-7.2-6.5C28.2 23.9 26 26 22.3 26c-3.6 0-6-2.2-7.2-6.5-2 4.3-4.8 6.5-8.5 6.5-5.5 0-7.1-6-6.5-9.1.4-2 2-6.7 4.9-14.4A4 4 0 0 1 8.7 0z" fill="url(#e)" transform="translate(24 28.7)"/><path d="M4.8 51.9h49.3c1.5 0 2.8 1.2 2.8 2.7 0 1.6-1.3 2.8-2.8 2.8H4.8a2.8 2.8 0 1 1 0-5.6z" fill="url(#f)" transform="translate(24 28.7)"/><g transform="translate(51 23.4)"><circle fill="#26DBF8" cx="20.012613" cy="20.012613" r="20.012613"/><path d="M17.8 29c-1-.2-1.8-.6-2.6-1v-1.1a2 2 0 0 0-2-2.1H12c-.5-.8-.9-1.6-1-2.6l.7-.7a2 2 0 0 0 0-3l-.8-.7c.2-1 .6-1.8 1-2.6h1.2a2 2 0 0 0 2-2V12c.8-.5 1.7-.9 2.6-1l.7.7a2 2 0 0 0 3 0l.7-.8c1 .2 1.8.6 2.6 1v1.2a2 2 0 0 0 2 2H28c.5.8.9 1.7 1.1 2.6l-.8.7a2 2 0 0 0 0 3l.8.7c-.2 1-.6 1.8-1 2.6h-1.1a2 2 0 0 0-2.1 2V28c-.8.5-1.6.9-2.6 1.1l-.7-.8a2 2 0 0 0-3 0l-.7.8zm2.2-6a3 3 0 1 0 0-6 3 3 0 0 0 0 6z" stroke="#FFF" stroke-width="1.5" stroke-linecap="round" stroke-linejoin="round"/></g></g></svg>
