<svg width="111px" height="111px" viewBox="0 0 111 111" xmlns="http://www.w3.org/2000/svg" xmlns:xlink="http://www.w3.org/1999/xlink"><defs><linearGradient x1="8.78698097%" y1="7.05226284%" x2="88.0447336%" y2="90.3014508%" id="a"><stop stop-color="#285DE4" offset="0%"/><stop stop-color="#00D5FF" offset="100%"/></linearGradient><linearGradient x1="0%" y1="19.0846665%" y2="84.6552863%" id="c"><stop stop-color="#4A79F1" offset="0%"/><stop stop-color="#3DE6FF" offset="100%"/></linearGradient><path d="M8 0h46.3a8 8 0 0 1 8 8v33a8 8 0 0 1-8 8H8a8 8 0 0 1-8-8V8a8 8 0 0 1 8-8z" id="b"/></defs><g transform="translate(.5 .5)" fill="none" fill-rule="evenodd"><circle fill="url(#a)" opacity="0.149999991" cx="55" cy="55" r="55"/><circle stroke="#5699F4" stroke-width="1.5" opacity="0.600000024" cx="55" cy="18" r="2.5"/><circle stroke="#5699F4" stroke-width="1.5" opacity="0.600000024" cx="32.5" cy="90.5" r="2"/><circle stroke="#5699F4" stroke-width="1.5" opacity="0.600000024" cx="97.5" cy="52.5" r="2"/><g transform="translate(23 30.2)"><mask id="d" fill="#fff"><use xlink:href="#b"/></mask><use fill="url(#c)" xlink:href="#b"/><path fill="#3A61CD" mask="url(#d)" d="M0 10h62.3v9H0z"/><circle fill="#00084F" opacity="0.200000003" mask="url(#d)" cx="47" cy="40.7671233" r="22.5"/><g mask="url(#d)" stroke="#FFF" stroke-linecap="round" stroke-linejoin="round" stroke-width="1.5"><path d="M8 30.6h10.8M8 36.6h7.8"/></g></g><g transform="translate(53.7 48.5)"><circle fill="#26DBF8" cx="19.1901768" cy="19.1901768" r="19.1901768"/><path stroke="#FFF" stroke-width="2" stroke-linecap="round" stroke-linejoin="round" d="M13.5 19.7l4.1 4.1 7.3-7.2"/></g></g></svg>
