<svg width="662px" height="724px" viewBox="0 0 662 724" xmlns="http://www.w3.org/2000/svg" xmlns:xlink="http://www.w3.org/1999/xlink"><defs><path d="M38 20h374c10 0 18 8 18 18v418c0 10-8 18-18 18H38c-10 0-18-8-18-18V38c0-10 8-18 18-18z" id="b"/><filter x="-64.6%" y="-31.9%" width="204.9%" height="194.7%" filterUnits="objectBoundingBox" id="a"><feOffset dx="-50" dy="70" in="SourceAlpha" result="shadowOffsetOuter1"/><feGaussianBlur stdDeviation="60" in="shadowOffsetOuter1" result="shadowBlurOuter1"/><feColorMatrix values="0 0 0 0 0.554552705 0 0 0 0 0.645145502 0 0 0 0 0.729506341 0 0 0 0.2 0" in="shadowBlurOuter1"/></filter><filter x="-160.0%" y="-160.0%" width="420.0%" height="420.0%" filterUnits="objectBoundingBox" id="c"><feOffset dy="20" in="SourceAlpha" result="shadowOffsetOuter1"/><feGaussianBlur stdDeviation="15" in="shadowOffsetOuter1" result="shadowBlurOuter1"/><feColorMatrix values="0 0 0 0 0.0229127465 0 0 0 0 0.523860408 0 0 0 0 0.580899004 0 0 0 0.2 0" in="shadowBlurOuter1" result="shadowMatrixOuter1"/><feMerge><feMergeNode in="shadowMatrixOuter1"/><feMergeNode in="SourceGraphic"/></feMerge></filter><path d="M38 20h216c10 0 18 8 18 18v147c0 10-8 18-18 18H38c-10 0-18-8-18-18V38c0-10 8-18 18-18z" id="e"/><filter x="-71.4%" y="-54.6%" width="211.1%" height="253.0%" filterUnits="objectBoundingBox" id="d"><feOffset dx="-40" dy="40" in="SourceAlpha" result="shadowOffsetOuter1"/><feGaussianBlur stdDeviation="40" in="shadowOffsetOuter1" result="shadowBlurOuter1"/><feColorMatrix values="0 0 0 0 0.456853247 0 0 0 0 0.530456752 0 0 0 0 0.591174139 0 0 0 0.3 0" in="shadowBlurOuter1"/></filter><linearGradient x1="15.0778283%" y1="20.4985455%" x2="91.0478753%" y2="74.9851367%" id="g"><stop stop-color="#5960FF" offset="0%"/><stop stop-color="#30CEFF" offset="100%"/></linearGradient><path d="M18 0h254c10 0 18 8 18 18v169c0 10-8 18-18 18H18c-10 0-18-8-18-18V18C0 8 8 0 18 0z" id="f"/><linearGradient x1="50%" y1="-19.9893544%" x2="50%" y2="107.752082%" id="i"><stop stop-color="#FFF" stop-opacity="0.2" offset="0%"/><stop stop-color="#FFF" stop-opacity="0" offset="100%"/></linearGradient></defs><g fill="none" fill-rule="evenodd"><g transform="translate(129 81.3)"><use fill="#000" filter="url(#a)" xlink:href="#b"/><use fill="#F6F9FD" xlink:href="#b"/></g><path d="M147 81.2h414c10 0 18 8.1 18 18v446c0 10-8 18-18 18H147c-10 0-18-8-18-18v-446c0-9.9 8-18 18-18z" fill="#FFF"/><g font-family="NunitoSans, -apple-system, BlinkMacSystemFont, Proxima Nova, Segoe UI, Roboto, Oxygen, Fira Sans, Droid Sans, Helvetica Neue, sans-serif" font-weight="500"><text font-size="16" letter-spacing="0.5" fill="#212839" transform="translate(159 163)"><tspan x="0" y="16">Samantha Produc</tspan> <tspan x="136.588" y="16">t</tspan></text><text font-size="12" letter-spacing="0.375" fill="#6A7C94" transform="translate(159 163)"><tspan x="0" y="41">Due March 21, 2019</tspan></text></g><text font-family="Helvetica" font-size="16" letter-spacing="0.5" fill="#212839" transform="translate(159 163)"><tspan x="344" y="26">$500</tspan></text><path d="M159.3 224.5H549" stroke="#D8D8DA" stroke-width="0.5"/><g font-family="NunitoSans, -apple-system, BlinkMacSystemFont, Proxima Nova, Segoe UI, Roboto, Oxygen, Fira Sans, Droid Sans, Helvetica Neue, sans-serif" font-weight="500"><text font-size="16" letter-spacing="0.5" fill="#212839" transform="translate(159 245)"><tspan x="0" y="16">Bale Grabs</tspan></text><text font-size="12" letter-spacing="0.375" fill="#6A7C94" transform="translate(159 245)"><tspan x="0" y="41">Due March 21, 2019</tspan></text><text font-size="16" letter-spacing="0.5" fill="#212839" transform="translate(159 245)"><tspan x="344" y="27">500</tspan></text></g><path d="M159.3 306.5H549" stroke="#D8D8DA" stroke-width="0.5"/><g font-family="NunitoSans, -apple-system, BlinkMacSystemFont, Proxima Nova, Segoe UI, Roboto, Oxygen, Fira Sans, Droid Sans, Helvetica Neue, sans-serif" font-weight="500"><text font-size="16" letter-spacing="0.5" fill="#212839" transform="translate(159 327)"><tspan x="0" y="16">Parallel Lift Loader Linkage</tspan></text><text font-size="12" letter-spacing="0.375" fill="#6A7C94" transform="translate(159 327)"><tspan x="0" y="41">Due March 21, 2019</tspan></text><text font-size="16" letter-spacing="0.5" fill="#212839" transform="translate(159 327)"><tspan x="344" y="27">200</tspan></text></g><path d="M159.3 388.5H549" stroke="#D8D8DA" stroke-width="0.5"/><g><g font-family="NunitoSans, -apple-system, BlinkMacSystemFont, Proxima Nova, Segoe UI, Roboto, Oxygen, Fira Sans, Droid Sans, Helvetica Neue, sans-serif" font-weight="500"><text font-size="16" letter-spacing="0.5" fill="#212839" transform="translate(159 409)"><tspan x="0" y="16">Catpillar Tractor-Scrapers</tspan></text><text font-size="12" letter-spacing="0.375" fill="#6A7C94" transform="translate(159 409)"><tspan x="0" y="41">Due March 21, 2019</tspan></text><text font-size="16" letter-spacing="0.5" fill="#212839" transform="translate(159 409)"><tspan x="334.6" y="27">1500</tspan></text></g><path d="M159.3 470.5H549" stroke="#D8D8DA" stroke-width="0.5"/></g><g font-family="NunitoSans, -apple-system, BlinkMacSystemFont, Proxima Nova, Segoe UI, Roboto, Oxygen, Fira Sans, Droid Sans, Helvetica Neue, sans-serif" font-weight="500"><text font-size="16" letter-spacing="0.5" fill="#212839" transform="translate(159 491)"><tspan x="0" y="16">Brushcutters</tspan></text><text font-size="12" letter-spacing="0.375" fill="#6A7C94" transform="translate(159 491)"><tspan x="0" y="41">Due March 21, 2019</tspan></text><text font-size="16" letter-spacing="0.5" fill="#212839" transform="translate(159 491)"><tspan x="344" y="27">800</tspan></text></g><g><text font-family="NunitoSans, -apple-system, BlinkMacSystemFont, Proxima Nova, Segoe UI, Roboto, Oxygen, Fira Sans, Droid Sans, Helvetica Neue, sans-serif" font-size="16" font-weight="500" letter-spacing="0.400000006" fill="#212839" transform="translate(159 112)"><tspan x="24.7379887" y="16">Product</tspan></text><path stroke="#6A7C94" stroke-width="1.5" stroke-linecap="round" stroke-linejoin="round" d="M163 121l-4 4 4 4"/></g><g filter="url(#c)" transform="translate(484 468)"><circle fill="#00CAE1" cx="30" cy="30" r="30"/><g stroke="#FFF" stroke-linecap="round" stroke-linejoin="round" stroke-width="2.5"><path d="M22 30h16M30 22v16"/></g></g><g><g transform="translate(351 19.5)"><use fill="#000" filter="url(#d)" xlink:href="#e"/><use fill="#F6F9FD" xlink:href="#e"/></g><g transform="translate(351 19.5)"><mask id="h" fill="#fff"><use xlink:href="#f"/></mask><use fill="url(#g)" xlink:href="#f"/><text mask="url(#h)" font-family="NunitoSans-Bold, Nunito Sans" font-size="14" font-weight="bold" letter-spacing="0.5" fill="#FFF"><tspan x="30" y="42">Revenu</tspan> <tspan x="81.034" y="42">e</tspan></text><g mask="url(#h)" fill="#FFF" fill-rule="nonzero"><path d="M60.8 92.8H67V97H49.6v-4.2h6V74.7l-4.8 2.9-2-3.8 8.4-5h3.6v24zM81 97.4a8.8 8.8 0 0 1-7.6-3.7c-1.8-2.5-2.7-6.1-2.7-10.8 0-4.7.9-8.2 2.7-10.7a8.8 8.8 0 0 1 7.6-3.7c3.3 0 5.9 1.2 7.6 3.7 1.8 2.5 2.7 6 2.7 10.7 0 4.7-.9 8.3-2.7 10.7a8.8 8.8 0 0 1-7.6 3.8zm0-4c1.8 0 3.1-1 4-2.6a19 19 0 0 0 1.2-8c0-3.5-.4-6.1-1.2-7.8a4.1 4.1 0 0 0-4-2.4c-1.8 0-3.1.8-4 2.4-.8 1.7-1.2 4.3-1.2 7.9 0 3.6.4 6.3 1.2 8a4.1 4.1 0 0 0 4 2.4zm24 4a8.8 8.8 0 0 1-7.6-3.7c-1.8-2.5-2.7-6.1-2.7-10.8 0-4.7.9-8.2 2.7-10.7a8.8 8.8 0 0 1 7.6-3.7c3.3 0 5.9 1.2 7.6 3.7 1.8 2.5 2.7 6 2.7 10.7 0 4.7-.9 8.3-2.7 10.7a8.8 8.8 0 0 1-7.6 3.8zm0-4c1.8 0 3.1-1 4-2.6a19 19 0 0 0 1.2-8c0-3.5-.4-6.1-1.2-7.8a4.1 4.1 0 0 0-4-2.4c-1.8 0-3.1.8-4 2.4-.8 1.7-1.2 4.3-1.2 7.9 0 3.6.4 6.3 1.2 8a4.1 4.1 0 0 0 4 2.4zm14.2-2h5.6V97h-5.6v-5.5zM140.4 79c1.8 0 3.4.3 4.7 1.1 1.3.8 2.4 1.8 3.1 3.2.8 1.3 1.1 2.9 1.1 4.7 0 1.8-.4 3.5-1.3 4.9-.8 1.4-2 2.5-3.6 3.3-1.5.7-3.4 1.1-5.5 1.1a15.7 15.7 0 0 1-9.5-3.3l1.8-3.7c2.5 2 5.1 2.9 7.8 2.9 1.8 0 3.1-.4 4-1.3 1-.9 1.4-2.2 1.4-3.8a5 5 0 0 0-1.4-3.7c-1-1-2.2-1.4-3.8-1.4a7.8 7.8 0 0 0-5.8 2.4h-3V68.8H148v4h-12.6v7.6c1.4-1 3-1.4 5-1.4zM163 97.4a8.8 8.8 0 0 1-7.6-3.7c-1.8-2.5-2.7-6.1-2.7-10.8 0-4.7 1-8.2 2.7-10.7a8.8 8.8 0 0 1 7.6-3.7c3.4 0 5.9 1.2 7.7 3.7 1.7 2.5 2.6 6 2.6 10.7 0 4.7-.9 8.3-2.6 10.7a8.8 8.8 0 0 1-7.7 3.8zm0-4c1.8 0 3.2-1 4-2.6a19 19 0 0 0 1.2-8c0-3.5-.4-6.1-1.2-7.8a4.1 4.1 0 0 0-4-2.4c-1.8 0-3.1.8-4 2.4-.8 1.7-1.2 4.3-1.2 7.9 0 3.6.4 6.3 1.3 8a4.1 4.1 0 0 0 4 2.4zM40 81.1c0 1-.4 2-1.1 2.7a5 5 0 0 1-3 1.2v2.2h-1.4v-2.1c-1 0-1.7-.3-2.5-.6s-1.5-.7-2-1.2l.6-1.3c.7.6 1.4 1 2 1.3.8.2 1.6.4 2.4.4a4 4 0 0 0 2.5-.7c.6-.4.9-1 .9-1.9 0-.4-.2-.8-.5-1.1a3 3 0 0 0-1.1-.7l-1.9-.6-2.4-.7a4 4 0 0 1-1.6-1.2c-.5-.5-.7-1.2-.7-2s.2-1.4.5-2c.4-.6.9-1 1.6-1.4.6-.4 1.3-.6 2.2-.7v-2.2h1.4v2.2a7 7 0 0 1 4 1.7l-.7 1.3a5.8 5.8 0 0 0-4-1.6c-1 0-1.9.2-2.4.7-.6.4-1 1-1 1.9 0 .5.2 1 .6 1.3.3.3.7.6 1.2.8l2 .6 2.3.7c.6.2 1 .6 1.5 1 .4.5.6 1.2.6 2zM189.2 97.2c-1.8 0-3.2-.5-4.1-1.5-1-1-1.5-2.4-1.5-4.2v-8.6h1.7v8.7c0 1.4.3 2.4 1 3.1.6.7 1.6 1 3 1 1.2 0 2.2-.3 2.9-1 .7-.7 1-1.7 1-3v-8.8h1.6v8.6c0 1.8-.4 3.2-1.4 4.2-1 1-2.3 1.5-4.2 1.5zm13.5 0c-2.2 0-4-.6-5.3-1.8l.7-1.3c.7.6 1.4 1 2 1.3.8.2 1.7.4 2.6.4 1.2 0 2-.3 2.6-.7.7-.4 1-1 1-1.9 0-.4-.2-.8-.5-1.1l-1.1-.7-2-.5-2.7-.8c-.7-.3-1.2-.7-1.7-1.2a3 3 0 0 1-.6-2c0-.9.2-1.6.6-2.2a4 4 0 0 1 1.8-1.5 8 8 0 0 1 5.4 0c.9.3 1.6.7 2.2 1.3l-.6 1.3c-.7-.6-1.4-1-2-1.3-.7-.2-1.5-.4-2.3-.4-1 0-2 .3-2.6.7-.6.5-.9 1.1-.9 2 0 .7.3 1.2.8 1.6l2.5.9c1.2.3 2.2.5 2.9.8.7.2 1.2.6 1.7 1.1.5.5.7 1.2.7 2s-.2 1.5-.6 2c-.5.7-1 1.1-1.8 1.5-.8.3-1.7.5-2.8.5zm7.9-14.3h4.7c2.3 0 4 .6 5.2 1.8 1.3 1.3 1.9 3 1.9 5.2 0 2.3-.6 4-1.9 5.3a7.1 7.1 0 0 1-5.2 1.8h-4.7V82.9zm4.6 12.7c3.7 0 5.5-1.9 5.5-5.7 0-3.7-1.8-5.6-5.5-5.6h-3v11.3h3z"/></g><path d="M-4 170.8c27.5 13.2 39.7-19.5 62.1-22.3 22.4-2.7 36 35.5 58.1 31.8 22.2-3.7 23.7-36.3 60.1-26.3 36.4 10 38.8-27 60.1-31 21.4-4.1 31.6 41 60.1 31v51H-4v-34.2z" fill="url(#i)" mask="url(#h)"/><path d="M-4 170.8c27.5 13.2 39.7-19.5 62.1-22.3 22.4-2.7 36 35.5 58.1 31.8 22.2-3.7 23.7-36.3 60.1-26.3 36.4 10 38.8-27 60.1-31 21.4-4.1 31.6 41 60.1 31" stroke="#FFF" stroke-width="2" stroke-linecap="round" stroke-linejoin="round" mask="url(#h)"/></g></g></g></svg>
