<svg width="633px" height="590px" viewBox="0 0 633 590" xmlns="http://www.w3.org/2000/svg" xmlns:xlink="http://www.w3.org/1999/xlink"><defs><path d="M38 20h284c10 0 18 8 18 18v318c0 10-8 18-18 18H38c-10 0-18-8-18-18V38c0-10 8-18 18-18z" id="b"/><filter x="-82.8%" y="-41.0%" width="234.4%" height="221.5%" filterUnits="objectBoundingBox" id="a"><feOffset dx="-50" dy="70" in="SourceAlpha" result="shadowOffsetOuter1"/><feGaussianBlur stdDeviation="60" in="shadowOffsetOuter1" result="shadowBlurOuter1"/><feColorMatrix values="0 0 0 0 0.554552705 0 0 0 0 0.645145502 0 0 0 0 0.729506341 0 0 0 0.2 0" in="shadowBlurOuter1"/></filter><linearGradient x1="112.267567%" y1="20.2193032%" x2="5.35905798%" y2="79.7806968%" id="d"><stop stop-color="#26DBF8" offset="0%"/><stop stop-color="#22A1FF" offset="100%"/></linearGradient><path d="M6 0h62.6a6 6 0 0 1 6 6v45.6a6 6 0 0 1-6 6H6a6 6 0 0 1-6-6V6a6 6 0 0 1 6-6z" id="c"/><linearGradient x1="65.0645598%" y1="-16.4730389%" x2="47.6588936%" y2="86.5167626%" id="f"><stop stop-color="#001E41" stop-opacity="0" offset="0%"/><stop stop-color="#001741" offset="100%"/></linearGradient><path d="M33 20h214c10 0 18 8 18 18v321c0 10-8 18-18 18H33c-10 0-18-8-18-18V38c0-10 8-18 18-18z" id="h"/><filter x="-72.0%" y="-28.0%" width="212.0%" height="178.4%" filterUnits="objectBoundingBox" id="g"><feOffset dx="-40" dy="40" in="SourceAlpha" result="shadowOffsetOuter1"/><feGaussianBlur stdDeviation="40" in="shadowOffsetOuter1" result="shadowBlurOuter1"/><feColorMatrix values="0 0 0 0 0.456853247 0 0 0 0 0.530456752 0 0 0 0 0.591174139 0 0 0 0.3 0" in="shadowBlurOuter1"/></filter><linearGradient x1="32.2407718%" y1="-5.47609207%" x2="76.1736407%" y2="108.921126%" id="i"><stop stop-color="#5960FF" offset="0%"/><stop stop-color="#30CEFF" offset="100%"/></linearGradient></defs><g fill="none" fill-rule="evenodd"><g transform="translate(129 9)"><use fill="#000" filter="url(#a)" xlink:href="#b"/><use fill="#F6F9FD" xlink:href="#b"/></g><path d="M147 9h324c10 0 18 8 18 18v339c0 10-8 18-18 18H147c-10 0-18-8-18-18V27c0-10 8-18 18-18z" fill="#FFF"/><path d="M168 232h124a8 8 0 0 1 8 8v34a8 8 0 0 1-8 8H168a8 8 0 0 1-8-8v-34a8 8 0 0 1 8-8z" stroke="#C7C7D3" stroke-width="0.5" fill="#FFF" stroke-linecap="round" stroke-linejoin="round"/><text font-family="NunitoSans, -apple-system, BlinkMacSystemFont, Proxima Nova, Segoe UI, Roboto, Oxygen, Fira Sans, Droid Sans, Helvetica Neue, sans-serif" font-size="18" font-weight="bold" letter-spacing="0.5" transform="translate(129 9)"><tspan x="71.5" y="253" fill="#002F83">Pay</tspan> <tspan x="103.834" y="253" fill="#0098D7">Pal</tspan></text><path d="M328 232h124a8 8 0 0 1 8 8v34a8 8 0 0 1-8 8H328a8 8 0 0 1-8-8v-34a8 8 0 0 1 8-8z" stroke="#C7C7D3" stroke-width="0.5" fill="#FFF" stroke-linecap="round" stroke-linejoin="round"/><text font-family="NunitoSans, -apple-system, BlinkMacSystemFont, Proxima Nova, Segoe UI, Roboto, Oxygen, Fira Sans, Droid Sans, Helvetica Neue, sans-serif" font-size="18" font-weight="bold" letter-spacing="0.5" transform="translate(129 9)"><tspan x="231.5" y="253" fill="#002F83">Pay</tspan> <tspan x="263.834" y="253" fill="#0098D7">pal</tspan></text><g transform="translate(159 91)"><mask id="e" fill="#fff"><use xlink:href="#c"/></mask><use fill="url(#d)" xlink:href="#c"/><g mask="url(#e)"><g transform="translate(27 29.4)"><path d="M1.6 0h37.2c.9 0 1.6.7 1.6 1.6v15.5c0 1-.7 1.7-1.6 1.7H1.6C.7 18.8 0 18 0 17V1.6C0 .7.7 0 1.6 0z" fill="#FFF" opacity="0.300000012"/><rect stroke="#FFF" stroke-width="1.08108108" stroke-linecap="round" stroke-linejoin="round" x="27.996997" y="5.87837838" width="7" height="7" rx="1"/><g stroke-linecap="round" stroke-linejoin="round" stroke="#FFF" stroke-width="1.08108108"><path d="M6.2 5.6h10.3M6.2 9.4h12M6.2 13.2h8.1"/></g></g></g><path fill="#FFF" opacity="0.5" mask="url(#e)" d="M42.5 0h10v14l-5-2.5-5 2.5z"/><path fill="url(#f)" opacity="0.25" mask="url(#e)" d="M-5 0h25v57.6H-5z"/></g><text font-family="NunitoSans, -apple-system, BlinkMacSystemFont, Proxima Nova, Segoe UI, Roboto, Oxygen, Fira Sans, Droid Sans, Helvetica Neue, sans-serif" font-size="18" font-weight="bold" letter-spacing="0.5" fill="#212839" transform="translate(254 94.5)"><tspan x="0" y="18">E-book Entrep</tspan> <tspan x="158.018" y="18">r</tspan></text><text font-family="NunitoSans, -apple-system, BlinkMacSystemFont, Proxima Nova, Segoe UI, Roboto, Oxygen, Fira Sans, Droid Sans, Helvetica Neue, sans-serif" font-size="12" font-weight="500" letter-spacing="0.375" fill="#6A7C94" transform="translate(254 94.5)"><tspan x="0" y="43">$9.99 USD</tspan></text><text font-family="NunitoSans, -apple-system, BlinkMacSystemFont, Proxima Nova, Segoe UI, Roboto, Oxygen, Fira Sans, Droid Sans, Helvetica Neue, sans-serif" font-size="13" letter-spacing="0.300000012" fill="#5A6D83" transform="translate(129 9)"><tspan x="30" y="168">Entrepreneurs write books to be sold</tspan> <tspan x="30" y="191">This product will teach you …</tspan></text><path d="M167 304h284a8 8 0 0 1 8 8v34a8 8 0 0 1-8 8H167a8 8 0 0 1-8-8v-34a8 8 0 0 1 8-8z" fill="#00CAE1"/><text font-family="NunitoSans, -apple-system, BlinkMacSystemFont, Proxima Nova, Segoe UI, Roboto, Oxygen, Fira Sans, Droid Sans, Helvetica Neue, sans-serif" font-size="14" font-weight="bold" letter-spacing="0.5" fill="#FFF" transform="translate(159 304)"><tspan x="118" y="31">Checkout</tspan></text><g stroke="#6A7C94" stroke-linecap="round" stroke-linejoin="round" stroke-width="1.5"><path d="M451.2 44.8l-8.4 8.4M451.2 53.2l-8.4-8.4"/></g><text font-family="NunitoSans, -apple-system, BlinkMacSystemFont, Proxima Nova, Segoe UI, Roboto, Oxygen, Fira Sans, Droid Sans, Helvetica Neue, sans-serif" font-size="16" font-weight="500" letter-spacing="0.400000006" fill="#212839" transform="translate(129 9)"><tspan x="30" y="44">Payment Method</tspan></text><g transform="translate(329 94)"><use fill="#000" filter="url(#g)" xlink:href="#h"/><use fill="#F6F9FD" xlink:href="#h"/><path d="M18 0h244c10 0 18 8 18 18v351c0 10-8 18-18 18H18c-10 0-18-8-18-18V18C0 8 8 0 18 0z" fill="url(#i)"/><g fill="#FFF" font-size="12"><text transform="translate(30 167)" font-family="NunitoSans, -apple-system, BlinkMacSystemFont, Proxima Nova, Segoe UI, Roboto, Oxygen, Fira Sans, Droid Sans, Helvetica Neue, sans-serif" letter-spacing="0.300000012"><tspan x="0.262011297" y="12">Amount</tspan></text><text font-family="NunitoSans, -apple-system, BlinkMacSystemFont, Proxima Nova, Segoe UI, Roboto, Oxygen, Fira Sans, Droid Sans, Helvetica Neue, sans-serif" font-weight="bold" letter-spacing="0.3" transform="translate(30 167)"><tspan x="179.224" y="12">$10.00</tspan></text></g><path d="M30.3 196.5H250" stroke="#FFF" stroke-width="0.5" opacity="0.300000012"/><g fill="#FFF" font-size="12"><text transform="translate(30 213)" font-family="NunitoSans, -apple-system, BlinkMacSystemFont, Proxima Nova, Segoe UI, Roboto, Oxygen, Fira Sans, Droid Sans, Helvetica Neue, sans-serif" letter-spacing="0.300000012"><tspan x="0.262011297" y="12">Gateway</tspan></text><text font-family="NunitoSans, -apple-system, BlinkMacSystemFont, Proxima Nova, Segoe UI, Roboto, Oxygen, Fira Sans, Droid Sans, Helvetica Neue, sans-serif" font-weight="bold" letter-spacing="0.3" transform="translate(30 213)"><tspan x="179.404" y="12">PayPal</tspan></text></g><path d="M30.3 242.5H250" stroke="#FFF" stroke-width="0.5" opacity="0.300000012"/><g fill="#FFF" font-size="12"><text transform="translate(30 259)" font-family="NunitoSans, -apple-system, BlinkMacSystemFont, Proxima Nova, Segoe UI, Roboto, Oxygen, Fira Sans, Droid Sans, Helvetica Neue, sans-serif" letter-spacing="0.300000012"><tspan x="0.262011297" y="12">Date Purchased</tspan></text><text font-family="NunitoSans, -apple-system, BlinkMacSystemFont, Proxima Nova, Segoe UI, Roboto, Oxygen, Fira Sans, Droid Sans, Helvetica Neue, sans-serif" font-weight="bold" letter-spacing="0.3" transform="translate(30 259)"><tspan x="150.496" y="12">Apr 5, 2019</tspan></text></g><path d="M30.3 288.5H250" stroke="#FFF" stroke-width="0.5" opacity="0.300000012"/><text font-family="NunitoSans, -apple-system, BlinkMacSystemFont, Proxima Nova, Segoe UI, Roboto, Oxygen, Fira Sans, Droid Sans, Helvetica Neue, sans-serif" font-size="16" font-weight="bold" letter-spacing="0.400000006" fill="#FFF"><tspan x="94.5" y="116">Demo Shop</tspan></text><text font-family="NunitoSans, -apple-system, BlinkMacSystemFont, Proxima Nova, Segoe UI, Roboto, Oxygen, Fira Sans, Droid Sans, Helvetica Neue, sans-serif" font-size="11" letter-spacing="0.5" fill="#FFF"><tspan x="90.5" y="138.5">Customer Receipt</tspan></text><circle fill="#FFF" cx="140" cy="60" r="30"/><path d="M126.6 53.7h4.9c1.4 0 2.6.2 3.5.7 1 .5 1.8 1.2 2.3 2.2.6 1 .8 2 .8 3.4a7 7 0 0 1-.8 3.4c-.5 1-1.2 1.7-2.2 2.2-1 .5-2.2.7-3.6.7h-5V53.7zm4.7 10.4c2.7 0 4-1.4 4-4.1 0-2.7-1.3-4-4-4h-2v8h2zm20-10.4h2.1v12.6H151v-7.5l-3 5.5h-1.7l-3-5.4v7.4H141V53.7h2.2l4 7.7 4.2-7.7z" fill="#5272FF" fill-rule="nonzero"/></g><g><path d="M367 401h214a8 8 0 0 1 8 8v34a8 8 0 0 1-8 8H367a8 8 0 0 1-8-8v-34a8 8 0 0 1 8-8z" fill="#FFF"/><text font-family="NunitoSans, -apple-system, BlinkMacSystemFont, Proxima Nova, Segoe UI, Roboto, Oxygen, Fira Sans, Droid Sans, Helvetica Neue, sans-serif" font-size="14" font-weight="bold" letter-spacing="0.400000006" fill="#2A76E5" transform="translate(359 401)"><tspan x="61" y="29.5">Leave Feedback</tspan></text></g></g></svg>
