
<svg width="144px" height="144px" viewBox="0 0 144 144" version="1.1" xmlns="http://www.w3.org/2000/svg" xmlns:xlink="http://www.w3.org/1999/xlink">
  <!-- Generator: Sketch 49.2 (51160) - http://www.bohemiancoding.com/sketch -->
  <desc>Created with Sketch.</desc>
  <defs></defs>
  <g id="Page-1" stroke="none" stroke-width="1" fill="none" fill-rule="evenodd">
    <g id="Selly.gg-Payment-Copy" transform="translate(-498.000000, -981.000000)">
      <g id="f1" transform="translate(394.000000, 963.000000)">
        <g id="Group-16" transform="translate(0.000000, 18.000000)">
          <g id="Ico_Numerous-Payment" transform="translate(104.000000, 0.000000)">
            <circle id="Oval" fill="#EDF8FF" cx="72" cy="72" r="72"></circle>
            <g id="Credit-Cards" transform="translate(16.000000, 40.000000)">
              <g id="Group-2">
                <path d="M38.5002387,64 C39.4685405,61.5205404 40,58.8223347 40,56 C40,43.8497355 30.1502645,34 18,34 C16.9823846,34 15.9809063,34.0690908 15,34.2028375 L15,16 L99,16 L99,54 C99,59.5228475 94.5228475,64 89,64 L38.5002387,64 Z M99,12 L15,12 L15,10 C15,4.4771525 19.4771525,1.11022302e-15 25,0 L89,0 C94.5228475,-8.8817842e-16 99,4.4771525 99,10 L99,12 Z M70.9994336,33.9988422 C69.3282096,32.7437216 67.2509575,32 65,32 C59.4771525,32 55,36.4771525 55,42 C55,47.5228475 59.4771525,52 65,52 C67.2509575,52 69.3282096,51.2562784 70.9994336,50.0011578 C74.9168816,52.9467872 80.5053784,52.6367572 84.0710678,49.0710678 C87.9763107,45.1658249 87.9763107,38.8341751 84.0710678,34.9289322 C80.5053784,31.3632428 74.9168816,31.0532128 70.9994336,33.9988422 Z M73.6674891,37.0091925 C75.9992567,35.4485752 79.1832455,35.6979642 81.2426407,37.7573593 C83.5857864,40.1005051 83.5857864,43.8994949 81.2426407,46.2426407 C79.1832455,48.3020358 75.9992567,48.5514248 73.6674891,46.9908075 C74.5150547,45.5220199 75,43.8176425 75,42 C75,40.1823575 74.5150547,38.4779801 73.6674891,37.0091925 Z M65,48 C61.6862915,48 59,45.3137085 59,42 C59,38.6862915 61.6862915,36 65,36 C68.3137085,36 71,38.6862915 71,42 C71,45.3137085 68.3137085,48 65,48 Z" id="Combined-Shape" fill="#3E9CFA" fill-rule="nonzero"></path>
                <g id="Group" transform="translate(0.000000, 38.000000)">
                  <circle id="Oval-5" fill="#82C8FA" cx="18" cy="18" r="18"></circle>
                  <path d="M22.7594498,11.5448487 C23.5907326,10.6212012 25.0133847,10.5463247 25.9370322,11.3776075 C26.8606798,12.2088903 26.9355562,13.6315424 26.1042734,14.55519 L18.0042734,23.55519 C17.1777275,24.4735744 15.765249,24.5536284 14.8402282,23.7345163 L9.75839228,19.2345163 C8.82807032,18.4107099 8.74172237,16.9887079 9.56552874,16.058386 C10.3893351,15.128064 11.8113371,15.0417161 12.741659,15.8655224 L16.1525295,18.8858712 L22.7594498,11.5448487 Z" id="Path-310" fill="#EDF8FF" fill-rule="nonzero"></path>
                </g>
              </g>
            </g>
          </g>
        </g>
      </g>
    </g>
  </g>
</svg>