
<svg width="144px" height="144px" viewBox="0 0 144 144" version="1.1" xmlns="http://www.w3.org/2000/svg" xmlns:xlink="http://www.w3.org/1999/xlink">
  <!-- Generator: Sketch 49.2 (51160) - http://www.bohemiancoding.com/sketch -->
  <desc>Created with Sketch.</desc>
  <defs></defs>
  <g id="Page-1" stroke="none" stroke-width="1" fill="none" fill-rule="evenodd">
    <g id="Selly.gg-Payment-Copy" transform="translate(-888.000000, -985.000000)">
      <g id="f1" transform="translate(394.000000, 963.000000)">
        <g id="Group-18" transform="translate(390.000000, 22.000000)">
          <g id="Ico_Easy-To" transform="translate(104.000000, 0.000000)">
            <circle id="Oval" fill="#EDF8FF" cx="72" cy="72" r="72"></circle>
            <g id="get-money" transform="translate(28.000000, 22.000000)">
              <g id="Group-52">
                <g id="Donation" transform="translate(0.000000, 0.722581)">
                  <g id="Group-39" transform="translate(0.000000, -0.000000)">
                    <g id="Group-40">
                      <path d="M17.3142857,77.9806452 L17.3142857,38.5609536 L19.1149512,37.0773736 C22.1814838,34.5508375 26.3788718,33.9238831 30.0421543,35.4452018 L41.3495091,40.1414449 C48.1746111,43.1310509 50.64545,47.9579292 47.964529,53.8162977 C47.4006826,55.0484189 46.6746745,56.0425852 45.794301,56.8062256 L52.6223194,58.9902799 L76.9051265,46.5678313 C81.8978509,44.2942085 85.9261133,44.6607884 88.3147089,48.0970483 C91.2698068,52.3482844 89.6370084,56.6609575 85.4897173,60.539806 C83.7789553,62.1398351 72.4823804,70.771251 55.5754584,83.5539813 C52.8848926,85.5880729 49.4043716,86.2392614 46.1674193,85.3141371 L20.5079882,77.9806452 L17.3142857,77.9806452 Z M0.53877551,36.7935484 C0.53877551,34.9977322 1.98608358,33.5419355 3.77142857,33.5419355 L10.0816327,33.5419355 C11.8669776,33.5419355 13.3142857,34.9977322 13.3142857,36.7935484 L13.3142857,79.483871 C13.3142857,81.2796872 11.8669776,82.7354839 10.0816327,82.7354839 L3.77142857,82.7354839 C1.98608358,82.7354839 0.53877551,81.2796872 0.53877551,79.483871 C0.53877551,77.6880547 0.53877551,38.5893646 0.53877551,36.7935484 Z" id="Combined-Shape" fill="#3E9CFA" fill-rule="nonzero"></path>
                      <path d="M43.7108399,28.4267578 C43.7108399,27.647457 43.9911105,26.9912136 44.5516602,26.4580078 C45.1122098,25.924802 45.7547815,25.6582031 46.4793945,25.6582031 C47.0672881,25.6582031 47.6141576,25.822264 48.1200195,26.1503906 C48.7899448,26.6289086 49.5248007,27.0356429 50.3246094,27.3706055 C51.1244181,27.7055681 51.9891555,27.9550773 52.9188477,28.1191406 L52.9188477,21.4951172 C51.8250922,21.2216783 50.7450249,20.9003925 49.6786133,20.53125 C48.6122017,20.1621075 47.6449262,19.6630891 46.7767578,19.0341797 C45.9085894,18.4052703 45.2079128,17.6157274 44.674707,16.6655273 C44.1415012,15.7153273 43.8749024,14.5224681 43.8749024,13.0869141 C43.8749024,12.0205025 44.0799784,11.0122118 44.4901367,10.0620117 C44.900295,9.11181166 45.4984336,8.26074595 46.2845703,7.50878906 C47.0707071,6.75683218 48.014057,6.12793222 49.1146484,5.62207031 C50.2152399,5.11620841 51.4832936,4.79492256 52.9188477,4.65820312 L52.9188477,2.42285156 C52.9188477,1.88964577 53.1136699,1.43506047 53.5033203,1.05908203 C53.8929707,0.683103589 54.3817354,0.495117188 54.9696289,0.495117188 C55.5028347,0.495117188 55.95742,0.683103589 56.3333984,1.05908203 C56.7093769,1.43506047 56.8973633,1.88964577 56.8973633,2.42285156 L56.8973633,4.74023438 C57.5126007,4.82226604 58.1859339,4.93847581 58.9173828,5.08886719 C59.6488318,5.23925856 60.3495084,5.4409167 61.0194336,5.69384766 C61.6893588,5.94677861 62.304587,6.24755685 62.8651367,6.59619141 C63.4256864,6.94482596 63.863182,7.34472431 64.1776367,7.79589844 C64.4510756,8.21972868 64.587793,8.65722431 64.587793,9.10839844 C64.587793,9.50488479 64.5057625,9.87060379 64.3416992,10.2055664 C64.1776359,10.540529 63.9554702,10.8242176 63.6751953,11.0566406 C63.3949205,11.2890637 63.0702167,11.4770501 62.7010742,11.6206055 C62.3319318,11.7641609 61.9696307,11.8359375 61.6141602,11.8359375 C61.3680652,11.8359375 61.1014663,11.7949223 60.8143555,11.7128906 C60.199118,11.5488273 59.5531284,11.2753925 58.8763672,10.8925781 C58.199606,10.5097637 57.5399446,10.2500007 56.8973633,10.1132812 L56.8973633,16.0400391 C57.9911188,16.3134779 59.078022,16.6381817 60.1581055,17.0141602 C61.238189,17.3901386 62.2191362,17.8959929 63.1009766,18.5317383 C63.9828169,19.1674836 64.6971652,19.9672803 65.244043,20.9311523 C65.7909207,21.8950244 66.0643555,23.0878835 66.0643555,24.5097656 C66.0643555,25.6855528 65.8729511,26.7792918 65.4901367,27.7910156 C65.1073223,28.8027394 64.5399452,29.6914024 63.7879883,30.4570312 C63.0360314,31.2226601 62.0858456,31.8583959 60.9374024,32.3642578 C59.7889591,32.8701197 58.4422929,33.2050773 56.8973633,33.3691406 L56.8973633,35.5224609 C56.8973633,36.0556667 56.7093769,36.510252 56.3333984,36.8862305 C55.95742,37.2622089 55.5028347,37.4501953 54.9696289,37.4501953 C54.3817354,37.4501953 53.8929707,37.2622089 53.5033203,36.8862305 C53.1136699,36.510252 52.9188477,36.0556667 52.9188477,35.5224609 L52.9188477,33.4101562 C52.0848591,33.3281246 51.2167037,33.1914072 50.3143555,33 C49.4120072,32.8085928 48.5541056,32.5590836 47.740625,32.2514648 C46.9271444,31.9438461 46.2059602,31.5781271 45.5770508,31.1542969 C44.9481414,30.7304666 44.4696306,30.2656275 44.1415039,29.7597656 C44.0047845,29.5410145 43.8988285,29.3256847 43.8236328,29.1137695 C43.7484371,28.9018544 43.7108399,28.6728528 43.7108399,28.4267578 Z M49.9657227,12.5947266 C49.9657227,12.9091813 50.0374993,13.182616 50.1810547,13.4150391 C50.3246101,13.6474621 50.5228503,13.862792 50.7757813,14.0610352 C51.0287122,14.2592783 51.3363263,14.433593 51.6986328,14.5839844 C52.0609393,14.7343758 52.4676735,14.8642573 52.9188477,14.9736328 L52.9188477,9.8671875 C51.9618116,10.0039069 51.2303736,10.3081031 50.7245117,10.7797852 C50.2186498,11.2514672 49.9657227,11.8564416 49.9657227,12.5947266 Z M56.8973633,28.1191406 C57.4032252,28.0097651 57.8543926,27.859376 58.2508789,27.6679688 C58.6473653,27.4765615 58.975487,27.2543958 59.2352539,27.0014648 C59.4950208,26.7485339 59.6898431,26.4682633 59.8197266,26.1606445 C59.94961,25.8530258 60.0145508,25.528322 60.0145508,25.1865234 C60.0145508,24.8447249 59.9359383,24.5371107 59.7787109,24.2636719 C59.6214836,23.990233 59.4027358,23.7475597 59.1224609,23.5356445 C58.8421861,23.3237294 58.5140644,23.1323251 58.1380859,22.9614258 C57.7621075,22.7905265 57.3485374,22.6367194 56.8973633,22.5 L56.8973633,28.1191406 Z" id="Combined-Shape" fill="#82C8FA"></path>
                    </g>
                  </g>
                </g>
              </g>
            </g>
          </g>
        </g>
      </g>
    </g>
  </g>
</svg>