<?xml version="1.0" encoding="UTF-8"?>
<svg version="1.1" viewBox="0 0 72 72" xmlns="http://www.w3.org/2000/svg">
  <desc>Created with Sketch for Selly LLC.</desc>
  <g fill="none" fill-rule="evenodd">
    <g transform="translate(-394 -1511)">
      <g transform="translate(-2 1511)">
        <g transform="translate(395)">
          <g transform="translate(1)">
            <circle cx="36" cy="36" r="36" fill="#EDF8FF"/>
            <path d="m18.013 26.232l-0.76459-6.2557h-4.1805c-0.55228 0-1-0.44772-1-1v-2c0-0.55228 0.44772-1 1-1h5.9509c1.0107 0 1.8626 0.75409 1.9852 1.7574l0.76592 6.2666h18.274c-0.02968 0.32936-0.044843 0.66291-0.044843 1 0 6.0751 4.9249 11 11 11 0.2804 0 0.55835-0.010492 0.83348-0.031104l-1.8811 8.465c-0.20335 0.91508-1.015 1.5661-1.9524 1.5661h-26c-1.0191 0-1.8752-0.76627-1.9878-1.7791l-1.9988-17.989zm23.987 29.768c-2.2091 0-4-1.7909-4-4s1.7909-4 4-4 4 1.7909 4 4-1.7909 4-4 4zm-14 0c-2.2091 0-4-1.7909-4-4s1.7909-4 4-4 4 1.7909 4 4-1.7909 4-4 4z" fill="#3E9CFA" fill-rule="nonzero"/>
            <circle cx="51" cy="25" r="9" fill="#82C8FA"/>
            <path d="m53.644 21.414c0.46182-0.51314 1.2522-0.55474 1.7653-0.092912 0.51314 0.46182 0.55474 1.2522 0.092912 1.7653l-4.5 5c-0.45919 0.51021-1.2439 0.55469-1.7578 0.099626l-2.8232-2.5c-0.51685-0.45767-0.56482-1.2477-0.10715-1.7645 0.45767-0.51685 1.2477-0.56482 1.7645-0.10715l1.8949 1.678 3.6705-4.0783z" fill="#EDF8FF"/>
          </g>
        </g>
      </g>
    </g>
  </g>
</svg>
